<svg width="312" height="144" viewBox="0 0 312 144" fill="none" xmlns="http://www.w3.org/2000/svg">
<g clip-path="url(#clip0_111_33)">
<path d="M11.3979 39.3896H82.1212V132.451C82.1212 138.274 77.3941 143 71.5705 143H21.9487C16.125 143 11.3979 138.274 11.3979 132.451V39.3896Z" fill="#384B2D"/>
<path d="M27.677 52.8166C27.677 51.2775 26.4291 50.0298 24.8898 50.0298C23.3504 50.0298 22.1025 51.2775 22.1025 52.8166V129.568C22.1025 131.107 23.3504 132.355 24.8898 132.355C26.4291 132.355 27.677 131.107 27.677 129.568V52.8166Z" fill="#D6D1BE"/>
<path d="M49.5471 52.8166C49.5471 51.2775 48.2992 50.0298 46.7599 50.0298C45.2205 50.0298 43.9727 51.2775 43.9727 52.8166V129.568C43.9727 131.107 45.2205 132.355 46.7599 132.355C48.2992 132.355 49.5471 131.107 49.5471 129.568V52.8166Z" fill="#D6D1BE"/>
<path d="M71.2258 52.8166C71.2258 51.2775 69.9779 50.0298 68.4386 50.0298C66.8992 50.0298 65.6514 51.2775 65.6514 52.8166V129.568C65.6514 131.107 66.8992 132.355 68.4386 132.355C69.9779 132.355 71.2258 131.107 71.2258 129.568V52.8166Z" fill="#D6D1BE"/>
<path d="M83.4754 32.7968L20.6448 0.316692C19.2631 -0.397552 17.5644 0.142504 16.8506 1.52294C16.1368 2.90338 16.6781 4.60146 18.0598 5.3157L80.8904 37.7958C82.2721 38.5101 83.9708 37.97 84.6846 36.5896C85.3984 35.2092 84.8571 33.5111 83.4754 32.7968Z" fill="#384B2D"/>
<path d="M68.6633 16.4273L41.6241 2.44944C40.218 1.72256 38.4888 2.27301 37.7618 3.67892L37.7599 3.68261C37.0329 5.08852 37.5834 6.81749 38.9895 7.54437L66.0287 21.5222C67.4348 22.2491 69.164 21.6986 69.891 20.2927L69.8929 20.289C70.6199 18.8831 70.0694 17.1542 68.6633 16.4273Z" fill="#384B2D"/>
<path d="M16.7524 11.9199H4.35738C1.95086 11.9199 0 13.8705 0 16.2767V28.6699C0 31.0761 1.95086 33.0267 4.35738 33.0267H16.7524C19.1589 33.0267 21.1098 31.0761 21.1098 28.6699V16.2767C21.1098 13.8705 19.1589 11.9199 16.7524 11.9199Z" fill="#891A04"/>
<path opacity="0.2" d="M7.05616 15.2538L6.52122 15.6412C6.17376 15.8927 6.09606 16.3783 6.34767 16.7257L14.0756 27.3959C14.3272 27.7433 14.8128 27.821 15.1603 27.5694L15.6952 27.1821C16.0427 26.9305 16.1204 26.445 15.8688 26.0976L8.14088 15.4274C7.88926 15.08 7.40362 15.0023 7.05616 15.2538Z" fill="#FBF1BD"/>
<path opacity="0.2" d="M4.90988 15.3589H4.24942C3.82043 15.3589 3.47266 15.7066 3.47266 16.1355V29.3096C3.47266 29.7385 3.82043 30.0863 4.24942 30.0863H4.90988C5.33888 30.0863 5.68665 29.7385 5.68665 29.3096V16.1355C5.68665 15.7066 5.33888 15.3589 4.90988 15.3589Z" fill="#FBF1BD"/>
<path opacity="0.2" d="M14.2561 14.8936H13.5956C13.1666 14.8936 12.8188 15.2413 12.8188 15.6702V28.8443C12.8188 29.2732 13.1666 29.6209 13.5956 29.6209H14.2561C14.6851 29.6209 15.0328 29.2732 15.0328 28.8443V15.6702C15.0328 15.2413 14.6851 14.8936 14.2561 14.8936Z" fill="#FBF1BD"/>
<path d="M23.835 15.2715H11.4399C9.03338 15.2715 7.08252 17.2221 7.08252 19.6282V32.0215C7.08252 34.4276 9.03338 36.3782 11.4399 36.3782H23.835C26.2415 36.3782 28.1923 34.4276 28.1923 32.0215V19.6282C28.1923 17.2221 26.2415 15.2715 23.835 15.2715Z" fill="#B23D29"/>
<path opacity="0.5" d="M23.1701 26.6641L16.0546 26.8012C14.9788 26.8012 14.1064 25.7712 14.1064 24.5003V22.0914C14.1064 20.8205 14.9788 19.7905 16.0546 19.7905H23.8763C24.9521 19.7905 25.8244 20.8205 25.8244 22.0914V27.8395C25.8244 28.2382 25.4589 28.4874 25.164 28.288C24.1795 27.6194 23.9344 27.2705 23.1701 26.6641Z" fill="#FBF1BD"/>
<path opacity="0.5" d="M18.7587 30.0863H11.8633C11.1821 30.5431 10.5549 31.2492 10.0356 31.6811C9.69088 31.9677 9.4458 31.9261 9.4458 31.4194V25.4679C9.4458 24.2219 10.2766 23.2085 11.3026 23.2085H18.7587C19.7847 23.2085 20.6155 24.2177 20.6155 25.4679V27.831C20.6155 29.077 19.7847 30.0904 18.7587 30.0904V30.0863Z" fill="#FBF1BD"/>
</g>
<mask id="path-14-outside-1_111_33" maskUnits="userSpaceOnUse" x="98" y="58" width="165" height="88" fill="black">
<rect fill="white" x="98" y="58" width="165" height="88"/>
<path d="M111.97 61.23C119.973 61.23 123.975 64.8583 123.975 72.115C123.975 79.3717 119.973 83 111.97 83H101.12V61.23H111.97ZM111.375 74.95C112.122 74.9267 112.635 74.7283 112.915 74.355C113.195 73.9817 113.335 73.235 113.335 72.115C113.335 70.995 113.195 70.2483 112.915 69.875C112.635 69.5017 112.122 69.3033 111.375 69.28V74.95ZM125.866 83V61.23H136.121V83H125.866ZM159.481 70.89V82.37C157.241 83.1633 154.348 83.56 150.801 83.56C142.284 83.56 138.026 79.7683 138.026 72.185C138.026 68.4517 139.123 65.605 141.316 63.645C143.533 61.6617 146.764 60.67 151.011 60.67C153.834 60.67 156.576 60.9617 159.236 61.545V69.84C156.459 69.35 154.289 69.105 152.726 69.105C151.466 69.105 150.568 69.3383 150.031 69.805C149.518 70.2717 149.261 71.0533 149.261 72.15C149.261 73.2 149.506 73.9583 149.996 74.425C150.509 74.8917 151.361 75.125 152.551 75.125H153.356L151.431 73.83V70.89H159.481ZM161.721 83V61.23H171.976V83H161.721ZM193.585 61.23V69.28H188.79V83H178.535V69.28H173.74V61.23H193.585ZM206.359 83L206.219 80.76H203.594L203.454 83H192.114L199.044 61.23H210.769L217.734 83H206.359ZM204.014 74.355H205.869L205.029 67.74H204.819L204.014 74.355ZM229.124 74.95H236.229V83H218.869V61.23H229.124V74.95ZM111.095 113.56C107.945 113.56 104.69 113.14 101.33 112.3V105.405H108.365C108.762 105.405 108.96 105.253 108.96 104.95C108.96 104.647 108.762 104.472 108.365 104.425C105.822 104.262 103.873 103.597 102.52 102.43C101.19 101.263 100.537 99.6767 100.56 97.67C100.583 93.0733 103.663 90.74 109.8 90.67C112.927 90.6467 116.252 91.0783 119.775 91.965V98.825H113.265C112.868 98.825 112.67 98.9883 112.67 99.315C112.67 99.595 112.88 99.7583 113.3 99.805C116.077 100.038 118.06 100.692 119.25 101.765C120.463 102.838 121.07 104.46 121.07 106.63C121.07 111.25 117.745 113.56 111.095 113.56ZM142.986 101.52L147.536 113H135.356L134.271 105.02C134.201 104.553 133.956 104.32 133.536 104.32H133.011V113H122.756V91.23H133.011V99.245H133.431C133.874 99.245 134.131 99 134.201 98.51L135.251 91.23H147.116L142.986 101.52ZM161.054 113L160.074 106.875C160.004 106.408 159.759 106.175 159.339 106.175H158.919V113H148.664V91.23H160.949C164.496 91.23 167.132 91.86 168.859 93.12C170.609 94.3567 171.484 96.34 171.484 99.07C171.484 100.307 171.274 101.403 170.854 102.36C170.434 103.317 169.862 104.017 169.139 104.46L172.884 113H161.054ZM159.269 100.645C160.319 100.645 160.844 100.12 160.844 99.07C160.844 98.02 160.319 97.495 159.269 97.495H158.919V100.645H159.269ZM187.116 113L186.976 110.76H184.351L184.211 113H172.871L179.801 91.23H191.526L198.491 113H187.116ZM184.771 104.355H186.626L185.786 97.74H185.576L184.771 104.355ZM209.881 104.95H216.986V113H199.626V91.23H209.881V104.95ZM229.582 91.23C237.586 91.23 241.587 94.8583 241.587 102.115C241.587 109.372 237.586 113 229.582 113H218.732V91.23H229.582ZM228.987 104.95C229.734 104.927 230.247 104.728 230.527 104.355C230.807 103.982 230.947 103.235 230.947 102.115C230.947 100.995 230.807 100.248 230.527 99.875C230.247 99.5017 229.734 99.3033 228.987 99.28V104.95ZM260.523 97.88H253.383V99.105H259.788V105.125H253.383V106.35H260.523V113H243.478V91.23H260.523V97.88ZM111.97 121.23C119.973 121.23 123.975 124.858 123.975 132.115C123.975 139.372 119.973 143 111.97 143H101.12V121.23H111.97ZM111.375 134.95C112.122 134.927 112.635 134.728 112.915 134.355C113.195 133.982 113.335 133.235 113.335 132.115C113.335 130.995 113.195 130.248 112.915 129.875C112.635 129.502 112.122 129.303 111.375 129.28V134.95ZM137.419 143L137.279 140.76H134.654L134.514 143H123.174L130.104 121.23H141.829L148.794 143H137.419ZM135.074 134.355H136.929L136.089 127.74H135.879L135.074 134.355ZM169.461 130.89V142.37C167.221 143.163 164.328 143.56 160.781 143.56C152.265 143.56 148.006 139.768 148.006 132.185C148.006 128.452 149.103 125.605 151.296 123.645C153.513 121.662 156.745 120.67 160.991 120.67C163.815 120.67 166.556 120.962 169.216 121.545V129.84C166.44 129.35 164.27 129.105 162.706 129.105C161.446 129.105 160.548 129.338 160.011 129.805C159.498 130.272 159.241 131.053 159.241 132.15C159.241 133.2 159.486 133.958 159.976 134.425C160.49 134.892 161.341 135.125 162.531 135.125H163.336L161.411 133.83V130.89H169.461Z"/>
</mask>
<path d="M101.12 83H99.12V85H101.12V83ZM101.12 61.23V59.23H99.12V61.23H101.12ZM111.375 74.95H109.375V77.0135L111.437 76.949L111.375 74.95ZM111.375 69.28L111.437 67.281L109.375 67.2165V69.28H111.375ZM111.97 63.23C115.709 63.23 118.14 64.0818 119.63 65.4329C121.083 66.7503 121.975 68.8482 121.975 72.115H125.975C125.975 68.1251 124.866 64.7806 122.317 62.4696C119.806 60.1924 116.234 59.23 111.97 59.23V63.23ZM121.975 72.115C121.975 75.3818 121.083 77.4797 119.63 78.7971C118.14 80.1482 115.709 81 111.97 81V85C116.234 85 119.806 84.0376 122.317 81.7604C124.866 79.4494 125.975 76.1049 125.975 72.115H121.975ZM111.97 81H101.12V85H111.97V81ZM103.12 83V61.23H99.12V83H103.12ZM101.12 63.23H111.97V59.23H101.12V63.23ZM111.437 76.949C112.428 76.9181 113.697 76.6455 114.515 75.555L111.315 73.155C111.372 73.0789 111.435 73.0207 111.492 72.9796C111.547 72.9396 111.588 72.9225 111.599 72.9182C111.61 72.9141 111.594 72.9212 111.545 72.9299C111.495 72.9387 111.419 72.9476 111.313 72.951L111.437 76.949ZM114.515 75.555C114.92 75.0156 115.101 74.3909 115.196 73.8836C115.296 73.3463 115.335 72.7464 115.335 72.115H111.335C111.335 72.6036 111.304 72.937 111.264 73.1464C111.245 73.2482 111.229 73.2955 111.226 73.3028C111.223 73.3121 111.244 73.2495 111.315 73.155L114.515 75.555ZM115.335 72.115C115.335 71.4836 115.296 70.8837 115.196 70.3464C115.101 69.8391 114.92 69.2144 114.515 68.675L111.315 71.075C111.244 70.9805 111.223 70.9179 111.226 70.9272C111.229 70.9345 111.245 70.9818 111.264 71.0836C111.304 71.293 111.335 71.6264 111.335 72.115H115.335ZM114.515 68.675C113.697 67.5845 112.428 67.3119 111.437 67.281L111.313 71.279C111.419 71.2824 111.495 71.2913 111.545 71.3001C111.594 71.3088 111.61 71.3159 111.599 71.3118C111.588 71.3075 111.547 71.2904 111.492 71.2504C111.435 71.2093 111.372 71.1511 111.315 71.075L114.515 68.675ZM109.375 69.28V74.95H113.375V69.28H109.375ZM125.866 83H123.866V85H125.866V83ZM125.866 61.23V59.23H123.866V61.23H125.866ZM136.121 61.23H138.121V59.23H136.121V61.23ZM136.121 83V85H138.121V83H136.121ZM127.866 83V61.23H123.866V83H127.866ZM125.866 63.23H136.121V59.23H125.866V63.23ZM134.121 61.23V83H138.121V61.23H134.121ZM136.121 81H125.866V85H136.121V81ZM159.481 70.89H161.481V68.89H159.481V70.89ZM159.481 82.37L160.149 84.2553L161.481 83.7834V82.37H159.481ZM141.316 63.645L142.649 65.1363L142.649 65.1355L141.316 63.645ZM159.236 61.545H161.236V59.9361L159.664 59.5914L159.236 61.545ZM159.236 69.84L158.888 71.8096L161.236 72.2238V69.84H159.236ZM150.031 69.805L148.719 68.2958L148.702 68.3103L148.686 68.3251L150.031 69.805ZM149.996 74.425L148.617 75.8733L148.633 75.8893L148.651 75.9049L149.996 74.425ZM153.356 75.125V77.125H159.912L154.472 73.4656L153.356 75.125ZM151.431 73.83H149.431V74.895L150.315 75.4894L151.431 73.83ZM151.431 70.89V68.89H149.431V70.89H151.431ZM157.481 70.89V82.37H161.481V70.89H157.481ZM158.813 80.4847C156.866 81.1745 154.221 81.56 150.801 81.56V85.56C154.474 85.56 157.616 85.1522 160.149 84.2553L158.813 80.4847ZM150.801 81.56C146.797 81.56 144.168 80.6638 142.55 79.2226C140.975 77.8207 140.026 75.6044 140.026 72.185H136.026C136.026 76.3489 137.206 79.8201 139.89 82.2099C142.529 84.5604 146.288 85.56 150.801 85.56V81.56ZM140.026 72.185C140.026 68.8571 140.988 66.6198 142.649 65.1363L139.983 62.1537C137.257 64.5902 136.026 68.0463 136.026 72.185H140.026ZM142.649 65.1355C144.369 63.5969 147.048 62.67 151.011 62.67V58.67C146.481 58.67 142.696 59.7265 139.982 62.1545L142.649 65.1355ZM151.011 62.67C153.695 62.67 156.293 62.9472 158.807 63.4986L159.664 59.5914C156.858 58.9761 153.973 58.67 151.011 58.67V62.67ZM157.236 61.545V69.84H161.236V61.545H157.236ZM159.583 67.8704C156.768 67.3735 154.463 67.105 152.726 67.105V71.105C154.115 71.105 156.151 71.3265 158.888 71.8096L159.583 67.8704ZM152.726 67.105C151.319 67.105 149.811 67.346 148.719 68.2958L151.343 71.3142C151.318 71.3359 151.372 71.2775 151.61 71.2158C151.848 71.1538 152.209 71.105 152.726 71.105V67.105ZM148.686 68.3251C147.565 69.3433 147.261 70.8111 147.261 72.15H151.261C151.261 71.7476 151.309 71.5003 151.354 71.3652C151.394 71.2416 151.419 71.2458 151.376 71.2849L148.686 68.3251ZM147.261 72.15C147.261 73.4508 147.557 74.8644 148.617 75.8733L151.375 72.9767C151.454 73.0522 151.261 72.9492 151.261 72.15H147.261ZM148.651 75.9049C149.718 76.8755 151.191 77.125 152.551 77.125V73.125C152.077 73.125 151.754 73.0775 151.548 73.0211C151.345 72.9656 151.31 72.9167 151.341 72.9451L148.651 75.9049ZM152.551 77.125H153.356V73.125H152.551V77.125ZM154.472 73.4656L152.547 72.1706L150.315 75.4894L152.24 76.7844L154.472 73.4656ZM153.431 73.83V70.89H149.431V73.83H153.431ZM151.431 72.89H159.481V68.89H151.431V72.89ZM161.721 83H159.721V85H161.721V83ZM161.721 61.23V59.23H159.721V61.23H161.721ZM171.976 61.23H173.976V59.23H171.976V61.23ZM171.976 83V85H173.976V83H171.976ZM163.721 83V61.23H159.721V83H163.721ZM161.721 63.23H171.976V59.23H161.721V63.23ZM169.976 61.23V83H173.976V61.23H169.976ZM171.976 81H161.721V85H171.976V81ZM193.585 61.23H195.585V59.23H193.585V61.23ZM193.585 69.28V71.28H195.585V69.28H193.585ZM188.79 69.28V67.28H186.79V69.28H188.79ZM188.79 83V85H190.79V83H188.79ZM178.535 83H176.535V85H178.535V83ZM178.535 69.28H180.535V67.28H178.535V69.28ZM173.74 69.28H171.74V71.28H173.74V69.28ZM173.74 61.23V59.23H171.74V61.23H173.74ZM191.585 61.23V69.28H195.585V61.23H191.585ZM193.585 67.28H188.79V71.28H193.585V67.28ZM186.79 69.28V83H190.79V69.28H186.79ZM188.79 81H178.535V85H188.79V81ZM180.535 83V69.28H176.535V83H180.535ZM178.535 67.28H173.74V71.28H178.535V67.28ZM175.74 69.28V61.23H171.74V69.28H175.74ZM173.74 63.23H193.585V59.23H173.74V63.23ZM206.359 83L204.363 83.1248L204.48 85H206.359V83ZM206.219 80.76L208.215 80.6352L208.098 78.76H206.219V80.76ZM203.594 80.76V78.76H201.715L201.598 80.6352L203.594 80.76ZM203.454 83V85H205.333L205.45 83.1248L203.454 83ZM192.114 83L190.208 82.3933L189.379 85H192.114V83ZM199.044 61.23V59.23H197.582L197.138 60.6233L199.044 61.23ZM210.769 61.23L212.674 60.6206L212.229 59.23H210.769V61.23ZM217.734 83V85H220.474L219.639 82.3906L217.734 83ZM204.014 74.355L202.029 74.1134L201.756 76.355H204.014V74.355ZM205.869 74.355V76.355H208.139L207.853 74.1031L205.869 74.355ZM205.029 67.74L207.013 67.4881L206.791 65.74H205.029V67.74ZM204.819 67.74V65.74H203.048L202.834 67.4984L204.819 67.74ZM208.355 82.8752L208.215 80.6352L204.223 80.8848L204.363 83.1248L208.355 82.8752ZM206.219 78.76H203.594V82.76H206.219V78.76ZM201.598 80.6352L201.458 82.8752L205.45 83.1248L205.59 80.8848L201.598 80.6352ZM203.454 81H192.114V85H203.454V81ZM194.02 83.6067L200.95 61.8367L197.138 60.6233L190.208 82.3933L194.02 83.6067ZM199.044 63.23H210.769V59.23H199.044V63.23ZM208.864 61.8394L215.829 83.6094L219.639 82.3906L212.674 60.6206L208.864 61.8394ZM217.734 81H206.359V85H217.734V81ZM204.014 76.355H205.869V72.355H204.014V76.355ZM207.853 74.1031L207.013 67.4881L203.045 67.9919L203.885 74.6069L207.853 74.1031ZM205.029 65.74H204.819V69.74H205.029V65.74ZM202.834 67.4984L202.029 74.1134L206 74.5966L206.805 67.9816L202.834 67.4984ZM229.124 74.95H227.124V76.95H229.124V74.95ZM236.229 74.95H238.229V72.95H236.229V74.95ZM236.229 83V85H238.229V83H236.229ZM218.869 83H216.869V85H218.869V83ZM218.869 61.23V59.23H216.869V61.23H218.869ZM229.124 61.23H231.124V59.23H229.124V61.23ZM229.124 76.95H236.229V72.95H229.124V76.95ZM234.229 74.95V83H238.229V74.95H234.229ZM236.229 81H218.869V85H236.229V81ZM220.869 83V61.23H216.869V83H220.869ZM218.869 63.23H229.124V59.23H218.869V63.23ZM227.124 61.23V74.95H231.124V61.23H227.124ZM101.33 112.3H99.33V113.862L100.845 114.24L101.33 112.3ZM101.33 105.405V103.405H99.33V105.405H101.33ZM108.365 104.425L108.599 102.439L108.546 102.433L108.493 102.429L108.365 104.425ZM102.52 102.43L101.201 103.934L101.208 103.939L101.214 103.945L102.52 102.43ZM100.56 97.67L102.56 97.6933L102.56 97.6802L100.56 97.67ZM109.8 90.67L109.785 88.67L109.777 88.6701L109.8 90.67ZM119.775 91.965H121.775V90.406L120.263 90.0255L119.775 91.965ZM119.775 98.825V100.825H121.775V98.825H119.775ZM113.3 99.805L113.079 101.793L113.106 101.796L113.133 101.798L113.3 99.805ZM119.25 101.765L117.91 103.25L117.918 103.257L117.925 103.263L119.25 101.765ZM111.095 111.56C108.124 111.56 105.032 111.164 101.815 110.36L100.845 114.24C104.348 115.116 107.766 115.56 111.095 115.56V111.56ZM103.33 112.3V105.405H99.33V112.3H103.33ZM101.33 107.405H108.365V103.405H101.33V107.405ZM108.365 107.405C108.762 107.405 109.426 107.339 110.026 106.88C110.728 106.343 110.96 105.575 110.96 104.95H106.96C106.96 104.81 106.983 104.595 107.089 104.35C107.201 104.093 107.378 103.87 107.596 103.703C107.998 103.395 108.365 103.405 108.365 103.405V107.405ZM110.96 104.95C110.96 104.318 110.729 103.616 110.134 103.092C109.611 102.63 109.008 102.487 108.599 102.439L108.131 106.411C108.119 106.41 107.813 106.378 107.488 106.091C107.092 105.741 106.96 105.279 106.96 104.95H110.96ZM108.493 102.429C106.205 102.282 104.735 101.699 103.826 100.915L101.214 103.945C103.012 105.494 105.439 106.241 108.237 106.421L108.493 102.429ZM103.839 100.926C103.01 100.199 102.542 99.2036 102.56 97.6933L98.5601 97.6467C98.531 100.15 99.3703 102.328 101.201 103.934L103.839 100.926ZM102.56 97.6802C102.569 95.8718 103.148 94.784 104.095 94.0667C105.146 93.2709 106.949 92.7026 109.823 92.6699L109.777 88.6701C106.514 88.7073 103.709 89.3407 101.68 90.8783C99.5467 92.4943 98.5742 94.8715 98.56 97.6598L102.56 97.6802ZM109.815 92.6699C112.747 92.6481 115.902 93.0527 119.287 93.9045L120.263 90.0255C116.601 89.1039 113.106 88.6453 109.785 88.6701L109.815 92.6699ZM117.775 91.965V98.825H121.775V91.965H117.775ZM119.775 96.825H113.265V100.825H119.775V96.825ZM113.265 96.825C112.843 96.825 112.154 96.904 111.547 97.4036C110.866 97.9645 110.67 98.73 110.67 99.315H114.67C114.67 99.5734 114.573 100.094 114.09 100.491C113.682 100.828 113.291 100.825 113.265 100.825V96.825ZM110.67 99.315C110.67 100.035 110.979 100.743 111.6 101.226C112.12 101.631 112.699 101.75 113.079 101.793L113.521 97.8172C113.522 97.8174 113.535 97.8188 113.557 97.8233C113.578 97.8277 113.613 97.836 113.657 97.8508C113.742 97.8791 113.891 97.9408 114.055 98.0688C114.229 98.2035 114.398 98.396 114.517 98.647C114.634 98.8947 114.67 99.1308 114.67 99.315H110.67ZM113.133 101.798C115.762 102.019 117.209 102.617 117.91 103.25L120.59 100.28C118.911 98.766 116.392 98.0578 113.467 97.812L113.133 101.798ZM117.925 103.263C118.576 103.839 119.07 104.828 119.07 106.63H123.07C123.07 104.092 122.35 101.837 120.575 100.267L117.925 103.263ZM119.07 106.63C119.07 108.392 118.477 109.461 117.435 110.185C116.261 111.001 114.25 111.56 111.095 111.56V115.56C114.59 115.56 117.567 114.964 119.717 113.47C122 111.884 123.07 109.488 123.07 106.63H119.07ZM142.986 101.52L141.13 100.775L140.833 101.515L141.126 102.257L142.986 101.52ZM147.536 113V115H150.48L149.395 112.263L147.536 113ZM135.356 113L133.374 113.269L133.609 115H135.356V113ZM134.271 105.02L136.253 104.751L136.251 104.737L136.249 104.723L134.271 105.02ZM133.011 104.32V102.32H131.011V104.32H133.011ZM133.011 113V115H135.011V113H133.011ZM122.756 113H120.756V115H122.756V113ZM122.756 91.23V89.23H120.756V91.23H122.756ZM133.011 91.23H135.011V89.23H133.011V91.23ZM133.011 99.245H131.011V101.245H133.011V99.245ZM134.201 98.51L132.221 98.2245L132.221 98.2272L134.201 98.51ZM135.251 91.23V89.23H133.519L133.271 90.9445L135.251 91.23ZM147.116 91.23L148.972 91.975L150.074 89.23H147.116V91.23ZM141.126 102.257L145.676 113.737L149.395 112.263L144.845 100.783L141.126 102.257ZM147.536 111H135.356V115H147.536V111ZM137.338 112.731L136.253 104.751L132.289 105.289L133.374 113.269L137.338 112.731ZM136.249 104.723C136.173 104.221 135.964 103.571 135.414 103.047C134.835 102.495 134.129 102.32 133.536 102.32V106.32C133.362 106.32 132.989 106.261 132.655 105.943C132.35 105.653 132.298 105.353 132.293 105.317L136.249 104.723ZM133.536 102.32H133.011V106.32H133.536V102.32ZM131.011 104.32V113H135.011V104.32H131.011ZM133.011 111H122.756V115H133.011V111ZM124.756 113V91.23H120.756V113H124.756ZM122.756 93.23H133.011V89.23H122.756V93.23ZM131.011 91.23V99.245H135.011V91.23H131.011ZM133.011 101.245H133.431V97.245H133.011V101.245ZM133.431 101.245C134.032 101.245 134.749 101.069 135.337 100.508C135.896 99.9737 136.107 99.3096 136.181 98.7928L132.221 98.2272C132.225 98.2004 132.272 97.9038 132.575 97.6145C132.906 97.2987 133.273 97.245 133.431 97.245V101.245ZM136.18 98.7955L137.23 91.5155L133.271 90.9445L132.221 98.2245L136.18 98.7955ZM135.251 93.23H147.116V89.23H135.251V93.23ZM145.26 90.485L141.13 100.775L144.842 102.265L148.972 91.975L145.26 90.485ZM161.054 113L159.079 113.316L159.349 115H161.054V113ZM160.074 106.875L158.096 107.172L158.098 107.181L158.099 107.191L160.074 106.875ZM158.919 106.175V104.175H156.919V106.175H158.919ZM158.919 113V115H160.919V113H158.919ZM148.664 113H146.664V115H148.664V113ZM148.664 91.23V89.23H146.664V91.23H148.664ZM168.859 93.12L167.68 94.7356L167.692 94.7446L167.705 94.7533L168.859 93.12ZM169.139 104.46L168.094 102.755L166.607 103.666L167.307 105.263L169.139 104.46ZM172.884 113V115H175.945L174.716 112.197L172.884 113ZM158.919 97.495V95.495H156.919V97.495H158.919ZM158.919 100.645H156.919V102.645H158.919V100.645ZM163.029 112.684L162.049 106.559L158.099 107.191L159.079 113.316L163.029 112.684ZM162.052 106.578C161.976 106.076 161.767 105.426 161.217 104.902C160.638 104.35 159.932 104.175 159.339 104.175V108.175C159.166 108.175 158.792 108.116 158.458 107.798C158.153 107.508 158.101 107.208 158.096 107.172L162.052 106.578ZM159.339 104.175H158.919V108.175H159.339V104.175ZM156.919 106.175V113H160.919V106.175H156.919ZM158.919 111H148.664V115H158.919V111ZM150.664 113V91.23H146.664V113H150.664ZM148.664 93.23H160.949V89.23H148.664V93.23ZM160.949 93.23C164.326 93.23 166.456 93.8421 167.68 94.7356L170.038 91.5044C167.809 89.8779 164.665 89.23 160.949 89.23V93.23ZM167.705 94.7533C168.781 95.5138 169.484 96.7912 169.484 99.07H173.484C173.484 95.8888 172.437 93.1996 170.013 91.4867L167.705 94.7533ZM169.484 99.07C169.484 100.08 169.313 100.895 169.023 101.556L172.685 103.164C173.235 101.912 173.484 100.533 173.484 99.07H169.484ZM169.023 101.556C168.728 102.227 168.396 102.57 168.094 102.755L170.184 106.165C171.329 105.464 172.14 104.407 172.685 103.164L169.023 101.556ZM167.307 105.263L171.052 113.803L174.716 112.197L170.971 103.657L167.307 105.263ZM172.884 111H161.054V115H172.884V111ZM159.269 102.645C160.102 102.645 161.095 102.435 161.864 101.665C162.634 100.896 162.844 99.9033 162.844 99.07H158.844C158.844 99.2867 158.791 99.0819 159.036 98.837C159.281 98.5922 159.486 98.645 159.269 98.645V102.645ZM162.844 99.07C162.844 98.2367 162.634 97.2444 161.864 96.4745C161.095 95.7047 160.102 95.495 159.269 95.495V99.495C159.486 99.495 159.281 99.5478 159.036 99.303C158.791 99.0581 158.844 98.8533 158.844 99.07H162.844ZM159.269 95.495H158.919V99.495H159.269V95.495ZM156.919 97.495V100.645H160.919V97.495H156.919ZM158.919 102.645H159.269V98.645H158.919V102.645ZM187.116 113L185.12 113.125L185.237 115H187.116V113ZM186.976 110.76L188.972 110.635L188.855 108.76H186.976V110.76ZM184.351 110.76V108.76H182.472L182.355 110.635L184.351 110.76ZM184.211 113V115H186.09L186.207 113.125L184.211 113ZM172.871 113L170.965 112.393L170.136 115H172.871V113ZM179.801 91.23V89.23H178.339L177.895 90.6233L179.801 91.23ZM191.526 91.23L193.431 90.6206L192.986 89.23H191.526V91.23ZM198.491 113V115H201.231L200.396 112.391L198.491 113ZM184.771 104.355L182.786 104.113L182.513 106.355H184.771V104.355ZM186.626 104.355V106.355H188.896L188.61 104.103L186.626 104.355ZM185.786 97.74L187.77 97.4881L187.548 95.74H185.786V97.74ZM185.576 97.74V95.74H183.805L183.591 97.4984L185.576 97.74ZM189.112 112.875L188.972 110.635L184.98 110.885L185.12 113.125L189.112 112.875ZM186.976 108.76H184.351V112.76H186.976V108.76ZM182.355 110.635L182.215 112.875L186.207 113.125L186.347 110.885L182.355 110.635ZM184.211 111H172.871V115H184.211V111ZM174.777 113.607L181.707 91.8367L177.895 90.6233L170.965 112.393L174.777 113.607ZM179.801 93.23H191.526V89.23H179.801V93.23ZM189.621 91.8394L196.586 113.609L200.396 112.391L193.431 90.6206L189.621 91.8394ZM198.491 111H187.116V115H198.491V111ZM184.771 106.355H186.626V102.355H184.771V106.355ZM188.61 104.103L187.77 97.4881L183.802 97.9919L184.642 104.607L188.61 104.103ZM185.786 95.74H185.576V99.74H185.786V95.74ZM183.591 97.4984L182.786 104.113L186.756 104.597L187.561 97.9816L183.591 97.4984ZM209.881 104.95H207.881V106.95H209.881V104.95ZM216.986 104.95H218.986V102.95H216.986V104.95ZM216.986 113V115H218.986V113H216.986ZM199.626 113H197.626V115H199.626V113ZM199.626 91.23V89.23H197.626V91.23H199.626ZM209.881 91.23H211.881V89.23H209.881V91.23ZM209.881 106.95H216.986V102.95H209.881V106.95ZM214.986 104.95V113H218.986V104.95H214.986ZM216.986 111H199.626V115H216.986V111ZM201.626 113V91.23H197.626V113H201.626ZM199.626 93.23H209.881V89.23H199.626V93.23ZM207.881 91.23V104.95H211.881V91.23H207.881ZM218.732 113H216.732V115H218.732V113ZM218.732 91.23V89.23H216.732V91.23H218.732ZM228.987 104.95H226.987V107.013L229.05 106.949L228.987 104.95ZM228.987 99.28L229.05 97.281L226.987 97.2165V99.28H228.987ZM229.582 93.23C233.321 93.23 235.753 94.0818 237.243 95.4329C238.696 96.7503 239.587 98.8482 239.587 102.115H243.587C243.587 98.1251 242.478 94.7806 239.929 92.4696C237.418 90.1924 233.846 89.23 229.582 89.23V93.23ZM239.587 102.115C239.587 105.382 238.696 107.48 237.243 108.797C235.753 110.148 233.321 111 229.582 111V115C233.846 115 237.418 114.038 239.929 111.76C242.478 109.449 243.587 106.105 243.587 102.115H239.587ZM229.582 111H218.732V115H229.582V111ZM220.732 113V91.23H216.732V113H220.732ZM218.732 93.23H229.582V89.23H218.732V93.23ZM229.05 106.949C230.04 106.918 231.309 106.645 232.127 105.555L228.927 103.155C228.984 103.079 229.047 103.021 229.104 102.98C229.16 102.94 229.2 102.923 229.212 102.918C229.222 102.914 229.207 102.921 229.157 102.93C229.107 102.939 229.032 102.948 228.925 102.951L229.05 106.949ZM232.127 105.555C232.532 105.016 232.713 104.391 232.808 103.884C232.909 103.346 232.947 102.746 232.947 102.115H228.947C228.947 102.604 228.916 102.937 228.877 103.146C228.857 103.248 228.841 103.295 228.838 103.303C228.835 103.312 228.856 103.25 228.927 103.155L232.127 105.555ZM232.947 102.115C232.947 101.484 232.909 100.884 232.808 100.346C232.713 99.8391 232.532 99.2144 232.127 98.675L228.927 101.075C228.856 100.98 228.835 100.918 228.838 100.927C228.841 100.935 228.857 100.982 228.877 101.084C228.916 101.293 228.947 101.626 228.947 102.115H232.947ZM232.127 98.675C231.309 97.5845 230.04 97.3119 229.05 97.281L228.925 101.279C229.032 101.282 229.107 101.291 229.157 101.3C229.207 101.309 229.222 101.316 229.212 101.312C229.2 101.307 229.16 101.29 229.104 101.25C229.047 101.209 228.984 101.151 228.927 101.075L232.127 98.675ZM226.987 99.28V104.95H230.987V99.28H226.987ZM260.523 97.88V99.88H262.523V97.88H260.523ZM253.383 97.88V95.88H251.383V97.88H253.383ZM253.383 99.105H251.383V101.105H253.383V99.105ZM259.788 99.105H261.788V97.105H259.788V99.105ZM259.788 105.125V107.125H261.788V105.125H259.788ZM253.383 105.125V103.125H251.383V105.125H253.383ZM253.383 106.35H251.383V108.35H253.383V106.35ZM260.523 106.35H262.523V104.35H260.523V106.35ZM260.523 113V115H262.523V113H260.523ZM243.478 113H241.478V115H243.478V113ZM243.478 91.23V89.23H241.478V91.23H243.478ZM260.523 91.23H262.523V89.23H260.523V91.23ZM260.523 95.88H253.383V99.88H260.523V95.88ZM251.383 97.88V99.105H255.383V97.88H251.383ZM253.383 101.105H259.788V97.105H253.383V101.105ZM257.788 99.105V105.125H261.788V99.105H257.788ZM259.788 103.125H253.383V107.125H259.788V103.125ZM251.383 105.125V106.35H255.383V105.125H251.383ZM253.383 108.35H260.523V104.35H253.383V108.35ZM258.523 106.35V113H262.523V106.35H258.523ZM260.523 111H243.478V115H260.523V111ZM245.478 113V91.23H241.478V113H245.478ZM243.478 93.23H260.523V89.23H243.478V93.23ZM258.523 91.23V97.88H262.523V91.23H258.523ZM101.12 143H99.12V145H101.12V143ZM101.12 121.23V119.23H99.12V121.23H101.12ZM111.375 134.95H109.375V137.013L111.437 136.949L111.375 134.95ZM111.375 129.28L111.437 127.281L109.375 127.217V129.28H111.375ZM111.97 123.23C115.709 123.23 118.14 124.082 119.63 125.433C121.083 126.75 121.975 128.848 121.975 132.115H125.975C125.975 128.125 124.866 124.781 122.317 122.47C119.806 120.192 116.234 119.23 111.97 119.23V123.23ZM121.975 132.115C121.975 135.382 121.083 137.48 119.63 138.797C118.14 140.148 115.709 141 111.97 141V145C116.234 145 119.806 144.038 122.317 141.76C124.866 139.449 125.975 136.105 125.975 132.115H121.975ZM111.97 141H101.12V145H111.97V141ZM103.12 143V121.23H99.12V143H103.12ZM101.12 123.23H111.97V119.23H101.12V123.23ZM111.437 136.949C112.428 136.918 113.697 136.645 114.515 135.555L111.315 133.155C111.372 133.079 111.435 133.021 111.492 132.98C111.547 132.94 111.588 132.923 111.599 132.918C111.61 132.914 111.594 132.921 111.545 132.93C111.495 132.939 111.419 132.948 111.313 132.951L111.437 136.949ZM114.515 135.555C114.92 135.016 115.101 134.391 115.196 133.884C115.296 133.346 115.335 132.746 115.335 132.115H111.335C111.335 132.604 111.304 132.937 111.264 133.146C111.245 133.248 111.229 133.295 111.226 133.303C111.223 133.312 111.244 133.25 111.315 133.155L114.515 135.555ZM115.335 132.115C115.335 131.484 115.296 130.884 115.196 130.346C115.101 129.839 114.92 129.214 114.515 128.675L111.315 131.075C111.244 130.98 111.223 130.918 111.226 130.927C111.229 130.935 111.245 130.982 111.264 131.084C111.304 131.293 111.335 131.626 111.335 132.115H115.335ZM114.515 128.675C113.697 127.585 112.428 127.312 111.437 127.281L111.313 131.279C111.419 131.282 111.495 131.291 111.545 131.3C111.594 131.309 111.61 131.316 111.599 131.312C111.588 131.307 111.547 131.29 111.492 131.25C111.435 131.209 111.372 131.151 111.315 131.075L114.515 128.675ZM109.375 129.28V134.95H113.375V129.28H109.375ZM137.419 143L135.423 143.125L135.54 145H137.419V143ZM137.279 140.76L139.275 140.635L139.158 138.76H137.279V140.76ZM134.654 140.76V138.76H132.775L132.658 140.635L134.654 140.76ZM134.514 143V145H136.393L136.51 143.125L134.514 143ZM123.174 143L121.268 142.393L120.438 145H123.174V143ZM130.104 121.23V119.23H128.642L128.198 120.623L130.104 121.23ZM141.829 121.23L143.734 120.621L143.289 119.23H141.829V121.23ZM148.794 143V145H151.534L150.699 142.391L148.794 143ZM135.074 134.355L133.088 134.113L132.816 136.355H135.074V134.355ZM136.929 134.355V136.355H139.199L138.913 134.103L136.929 134.355ZM136.089 127.74L138.073 127.488L137.851 125.74H136.089V127.74ZM135.879 127.74V125.74H134.107L133.893 127.498L135.879 127.74ZM139.415 142.875L139.275 140.635L135.283 140.885L135.423 143.125L139.415 142.875ZM137.279 138.76H134.654V142.76H137.279V138.76ZM132.658 140.635L132.518 142.875L136.51 143.125L136.65 140.885L132.658 140.635ZM134.514 141H123.174V145H134.514V141ZM125.08 143.607L132.01 121.837L128.198 120.623L121.268 142.393L125.08 143.607ZM130.104 123.23H141.829V119.23H130.104V123.23ZM139.924 121.839L146.889 143.609L150.699 142.391L143.734 120.621L139.924 121.839ZM148.794 141H137.419V145H148.794V141ZM135.074 136.355H136.929V132.355H135.074V136.355ZM138.913 134.103L138.073 127.488L134.105 127.992L134.945 134.607L138.913 134.103ZM136.089 125.74H135.879V129.74H136.089V125.74ZM133.893 127.498L133.088 134.113L137.059 134.597L137.864 127.982L133.893 127.498ZM169.461 130.89H171.461V128.89H169.461V130.89ZM169.461 142.37L170.129 144.255L171.461 143.783V142.37H169.461ZM151.296 123.645L152.629 125.136L152.63 125.135L151.296 123.645ZM169.216 121.545H171.216V119.936L169.645 119.591L169.216 121.545ZM169.216 129.84L168.869 131.81L171.216 132.224V129.84H169.216ZM160.011 129.805L158.699 128.296L158.682 128.31L158.666 128.325L160.011 129.805ZM159.976 134.425L158.597 135.873L158.614 135.889L158.631 135.905L159.976 134.425ZM163.336 135.125V137.125H169.892L164.453 133.466L163.336 135.125ZM161.411 133.83H159.411V134.895L160.295 135.489L161.411 133.83ZM161.411 130.89V128.89H159.411V130.89H161.411ZM167.461 130.89V142.37H171.461V130.89H167.461ZM168.794 140.485C166.846 141.175 164.201 141.56 160.781 141.56V145.56C164.455 145.56 167.597 145.152 170.129 144.255L168.794 140.485ZM160.781 141.56C156.778 141.56 154.149 140.664 152.53 139.223C150.956 137.821 150.006 135.604 150.006 132.185H146.006C146.006 136.349 147.186 139.82 149.87 142.21C152.51 144.56 156.268 145.56 160.781 145.56V141.56ZM150.006 132.185C150.006 128.857 150.969 126.62 152.629 125.136L149.964 122.154C147.237 124.59 146.006 128.046 146.006 132.185H150.006ZM152.63 125.135C154.35 123.597 157.028 122.67 160.991 122.67V118.67C156.461 118.67 152.676 119.726 149.963 122.155L152.63 125.135ZM160.991 122.67C163.676 122.67 166.274 122.947 168.788 123.499L169.645 119.591C166.839 118.976 163.953 118.67 160.991 118.67V122.67ZM167.216 121.545V129.84H171.216V121.545H167.216ZM169.564 127.87C166.748 127.374 164.444 127.105 162.706 127.105V131.105C164.096 131.105 166.131 131.326 168.869 131.81L169.564 127.87ZM162.706 127.105C161.3 127.105 159.791 127.346 158.699 128.296L161.324 131.314C161.299 131.336 161.353 131.278 161.59 131.216C161.829 131.154 162.19 131.105 162.706 131.105V127.105ZM158.666 128.325C157.546 129.343 157.241 130.811 157.241 132.15H161.241C161.241 131.748 161.29 131.5 161.334 131.365C161.375 131.242 161.4 131.246 161.357 131.285L158.666 128.325ZM157.241 132.15C157.241 133.451 157.538 134.864 158.597 135.873L161.356 132.977C161.435 133.052 161.241 132.949 161.241 132.15H157.241ZM158.631 135.905C159.699 136.875 161.172 137.125 162.531 137.125V133.125C162.057 133.125 161.734 133.077 161.529 133.021C161.326 132.966 161.29 132.917 161.322 132.945L158.631 135.905ZM162.531 137.125H163.336V133.125H162.531V137.125ZM164.453 133.466L162.528 132.171L160.295 135.489L162.22 136.784L164.453 133.466ZM163.411 133.83V130.89H159.411V133.83H163.411ZM161.411 132.89H169.461V128.89H161.411V132.89Z" fill="#3C4A30" mask="url(#path-14-outside-1_111_33)"/>
<defs>
<clipPath id="clip0_111_33">
<rect width="85" height="143" fill="white"/>
</clipPath>
</defs>
</svg>
