<svg width="871" height="1464" viewBox="0 0 871 1464" fill="none" xmlns="http://www.w3.org/2000/svg">
<g clip-path="url(#clip0_39_96)">
<path d="M116.797 403.258H841.503V1356C841.503 1415.61 793.064 1464 733.389 1464H224.912C165.236 1464 116.797 1415.61 116.797 1356V403.258Z" fill="#384B2D"/>
<path d="M283.608 540.725C283.608 524.968 270.821 512.194 255.047 512.194C239.273 512.194 226.486 524.968 226.486 540.725V1326.49C226.486 1342.25 239.273 1355.02 255.047 1355.02C270.821 1355.02 283.608 1342.25 283.608 1326.49V540.725Z" fill="#D6D1BE"/>
<path d="M507.711 540.725C507.711 524.968 494.924 512.194 479.15 512.194C463.376 512.194 450.589 524.968 450.589 540.725V1326.49C450.589 1342.25 463.376 1355.02 479.15 1355.02C494.924 1355.02 507.711 1342.25 507.711 1326.49V540.725Z" fill="#D6D1BE"/>
<path d="M729.856 540.725C729.856 524.968 717.068 512.194 701.295 512.194C685.521 512.194 672.734 524.968 672.734 540.725V1326.49C672.734 1342.25 685.521 1355.02 701.295 1355.02C717.068 1355.02 729.856 1342.25 729.856 1326.49V540.725Z" fill="#D6D1BE"/>
<path d="M855.378 335.764L211.549 3.24052C197.391 -4.07174 179.984 1.45723 172.669 15.5898C165.355 29.7224 170.902 47.1069 185.06 54.4192L828.889 386.943C843.047 394.255 860.454 388.726 867.769 374.594C875.083 360.461 869.536 343.077 855.378 335.764Z" fill="#384B2D"/>
<path d="M703.596 168.177L426.524 25.0749C412.115 17.6333 394.396 23.2687 386.946 37.662L386.927 37.6998C379.477 52.0932 385.119 69.7939 399.527 77.2356L676.599 220.337C691.008 227.779 708.727 222.144 716.177 207.75L716.196 207.712C723.646 193.319 718.004 175.618 703.596 168.177Z" fill="#384B2D"/>
<path d="M171.663 122.032H44.6503C19.9906 122.032 0 142.001 0 166.635V293.514C0 318.148 19.9906 338.118 44.6503 338.118H171.663C196.323 338.118 216.313 318.148 216.313 293.514V166.635C216.313 142.001 196.323 122.032 171.663 122.032Z" fill="#891A04"/>
<path opacity="0.2" d="M72.3066 156.165L66.8251 160.131C63.2646 162.706 62.4684 167.677 65.0467 171.234L144.235 280.473C146.813 284.03 151.79 284.825 155.35 282.249L160.832 278.284C164.392 275.709 165.188 270.737 162.61 267.181L83.4217 157.942C80.8435 154.385 75.867 153.59 72.3066 156.165Z" fill="#FBF1BD"/>
<path opacity="0.2" d="M50.3113 157.238H43.5436C39.1476 157.238 35.584 160.798 35.584 165.189V300.062C35.584 304.454 39.1476 308.014 43.5436 308.014H50.3113C54.7073 308.014 58.2709 304.454 58.2709 300.062V165.189C58.2709 160.798 54.7073 157.238 50.3113 157.238Z" fill="#FBF1BD"/>
<path opacity="0.2" d="M146.082 152.476H139.314C134.918 152.476 131.354 156.036 131.354 160.427V295.3C131.354 299.691 134.918 303.251 139.314 303.251H146.082C150.478 303.251 154.041 299.691 154.041 295.3V160.427C154.041 156.036 150.478 152.476 146.082 152.476Z" fill="#FBF1BD"/>
<path d="M244.236 156.345H117.223C92.5634 156.345 72.5728 176.315 72.5728 200.949V327.828C72.5728 352.461 92.5634 372.431 117.223 372.431H244.236C268.896 372.431 288.886 352.461 288.886 327.828V200.949C288.886 176.315 268.896 156.345 244.236 156.345Z" fill="#B23D29"/>
<path opacity="0.5" d="M237.425 272.977L164.512 274.38C153.488 274.38 144.549 263.835 144.549 250.824V226.163C144.549 213.152 153.488 202.607 164.512 202.607H244.661C255.686 202.607 264.624 213.152 264.624 226.163V285.01C264.624 289.092 260.879 291.643 257.856 289.602C247.769 282.757 245.257 279.185 237.425 272.977Z" fill="#FBF1BD"/>
<path opacity="0.5" d="M192.222 308.014H121.565C114.584 312.691 108.157 319.919 102.836 324.341C99.3033 327.275 96.792 326.85 96.792 321.662V260.731C96.792 247.976 105.305 237.601 115.818 237.601H192.222C202.735 237.601 211.248 247.933 211.248 260.731V284.925C211.248 297.681 202.735 308.056 192.222 308.056V308.014Z" fill="#FBF1BD"/>
</g>
<defs>
<clipPath id="clip0_39_96">
<rect width="871" height="1464" fill="white"/>
</clipPath>
</defs>
</svg>
