<svg width="586" height="570" viewBox="0 0 586 570" fill="none" xmlns="http://www.w3.org/2000/svg">
<g clip-path="url(#clip0_101_3456)">
<path d="M34.688 58.6084L80.5749 17.6815C81.7626 16.6222 83.5841 16.7263 84.6434 17.9139L131.971 70.9771C133.03 72.1648 132.926 73.9863 131.738 75.0456L85.8514 115.972C84.6637 117.032 82.8422 116.928 81.7829 115.74L34.4555 62.6769C33.3962 61.4892 33.5003 59.6677 34.688 58.6084Z" fill="#E6E6E6" stroke="#D6D1BE"/>
<path d="M128.848 476.81L88.2343 488.448C79.1322 491.056 73.8679 500.549 76.4761 509.652L88.1143 550.265C90.7225 559.367 100.216 564.632 109.318 562.023L149.932 550.385C159.034 547.777 164.298 538.284 161.69 529.182L150.052 488.568C147.443 479.466 137.95 474.202 128.848 476.81Z" fill="#3C4A30"/>
<path d="M284.028 450.509C380.865 450.509 459.367 374.188 459.367 280.041C459.367 185.894 380.865 109.573 284.028 109.573C187.191 109.573 108.689 185.894 108.689 280.041C108.689 374.188 187.191 450.509 284.028 450.509Z" fill="#3C4A30"/>
<path d="M284.028 450.161C374.524 450.161 447.886 376.799 447.886 286.303C447.886 195.807 374.524 122.445 284.028 122.445C193.531 122.445 120.17 195.807 120.17 286.303C120.17 376.799 193.531 450.161 284.028 450.161Z" fill="#4F5E40"/>
<path opacity="0.6" d="M356.896 379.017C433.68 322.324 462.383 230.935 421.006 174.894C379.628 118.853 283.839 119.382 207.055 176.075C130.271 232.768 101.568 324.157 142.945 380.198C184.323 436.238 280.112 435.71 356.896 379.017Z" fill="#6E7F59"/>
<path d="M351.172 122.728C341.988 136.331 326.201 143.637 311.206 150.295C301.131 154.769 291.063 159.243 280.988 163.724C279.04 164.587 277.057 165.477 275.512 166.946C273.39 168.956 272.333 171.83 271.519 174.634C270.252 178.997 269.403 183.477 268.979 187.993C268.728 190.7 268.485 193.719 266.446 195.515C264.206 197.491 260.65 197.073 258.055 195.591C255.46 194.109 253.463 191.792 251.118 189.948C244.863 185.029 235.915 183.784 228.554 186.81C221.192 189.837 215.709 197.017 214.721 204.915C214.499 206.675 214.506 208.533 215.257 210.133C217.477 214.871 224.073 214.677 229.291 215.15C237.815 215.922 245.893 220.66 250.735 227.723C255.578 234.785 257.074 244.025 254.722 252.256C254.326 253.634 253.699 255.13 252.377 255.672C250.262 256.535 248.182 254.469 246.776 252.667C238.9 242.599 228.901 233.699 216.76 229.692C206.553 226.324 195.044 226.442 185.971 220.688C175.354 213.96 170.636 200.378 171.402 187.833C172.167 175.288 177.524 163.508 183.3 152.341C187.008 145.188 191.245 137.882 197.438 132.574C204.257 126.729 213.859 124.941 222.055 121.684C252.468 109.613 286.346 106.44 318.47 112.66C329.714 114.838 340.784 118.157 351.075 123.18" fill="#BAB25E"/>
<path d="M259.515 274.28C259.209 285.976 259.39 298.201 264.789 308.582C270.363 319.304 280.695 326.548 289.845 334.452C292.343 336.609 294.806 338.877 296.566 341.674C300.525 347.964 300.351 356.084 298.368 363.243C296.385 370.403 292.795 376.999 290.172 383.957C285.03 397.588 283.722 412.644 286.428 426.957C287.089 430.443 288.627 434.527 292.12 435.146C296.392 435.905 299.217 431.02 301.109 427.11C307.448 414.043 318.087 403.53 329.525 394.589C340.964 385.648 353.391 378.008 364.774 368.991C379.942 356.974 393.19 342.53 403.863 326.381C408.741 318.991 413.236 310.649 412.589 301.819C412.004 293.873 407.217 286.7 401.129 281.558C395.041 276.416 387.693 273.027 380.408 269.799C357.642 259.717 334.403 250.609 310.461 243.777C299.099 240.534 286.24 237.563 275.031 243.011C270.015 245.446 265.269 249.579 262.598 254.54C259.543 260.211 259.682 268.032 259.522 274.294L259.515 274.28Z" fill="#BAB25E"/>
<path d="M398.979 151.083C397.97 150.2 396.94 149.351 395.883 148.53C394.456 147.417 392.988 146.352 391.499 145.322C390.149 144.39 388.758 143.618 387.519 142.56C384.91 140.333 382.064 138.371 379.052 136.729C378.446 136.402 377.075 135.679 376.428 136.263C375.99 136.66 375.677 137.731 375.454 138.274C374.863 139.721 374.501 141.259 374.355 142.817C373.882 148.064 375.913 153.623 380.06 156.97C383.268 159.551 387.317 160.783 391.144 162.3C399.236 165.493 406.744 170.162 413.18 176.014C415.49 178.108 417.71 180.425 418.92 183.298C419.839 185.469 420.131 187.849 420.305 190.201C421.738 209.043 416.728 229.151 424.89 246.198C430.442 257.803 441.777 267.044 442.967 279.853C443.294 283.36 442.8 286.894 442.925 290.415C443.113 295.759 446.098 303.524 452.923 302.431C459.192 301.429 458.928 291.535 459.387 286.609C460.883 270.467 458.072 254.255 454.781 238.502C453.431 232.038 451.991 225.575 449.73 219.368C446.32 209.989 441.116 201.375 435.786 192.935C430.728 184.913 425.495 176.946 419.226 169.8C416.144 166.286 412.895 163.385 409.263 160.511C405.61 157.617 402.472 154.159 398.972 151.09L398.979 151.083Z" fill="#BAB25E"/>
<path d="M526.273 21.9232L451.591 35.1722C449.241 35.5891 447.674 37.8318 448.091 40.1814L456.479 87.4595C456.895 89.8092 459.138 91.376 461.488 90.9592L536.17 77.7101C538.519 77.2933 540.086 75.0506 539.669 72.701L531.282 25.4228C530.865 23.0732 528.622 21.5063 526.273 21.9232Z" fill="#3C4A30"/>
<path d="M458.986 9.75197L510.389 0.632832C514.044 -0.0156853 517.533 2.42198 518.182 6.07752L524.425 41.2706C525.074 44.9262 522.636 48.4153 518.981 49.0638L467.578 58.183C463.923 58.8315 460.434 56.3938 459.785 52.7383L453.541 17.5451C452.893 13.8896 455.331 10.4005 458.986 9.75197Z" fill="#F3EFEA" stroke="#D6D1BE"/>
<path d="M495.93 41.6985C493.036 43.104 489.856 44.6 486.551 44.3773C483.455 44.1686 480.915 41.9003 479.252 39.4303C476.003 34.5876 475.878 28.1794 479.454 23.4619C481.277 21.0545 483.942 19.5377 486.808 18.7236C489.675 17.9095 492.611 17.6521 495.394 18.501C500.801 20.1569 503.027 26.6278 500.822 31.6096C500.223 32.9594 499.312 34.2258 498.115 35.1094C497.134 35.8261 495.214 36.8559 494.107 35.84C493.001 34.8242 493.133 32.4654 493.168 31.1434C493.217 29.2996 493.613 27.4558 494.33 25.7511C494.546 25.2362 494.497 24.6378 493.954 24.3247C491.936 23.1558 489.522 23.3089 487.469 24.3108C485.417 25.3127 483.865 27.3096 482.766 29.3065C481.764 31.1295 480.846 33.2725 481.27 35.3947C481.694 37.5169 483.775 38.7762 485.911 38.5188C488.784 38.1709 490.44 35.8191 492.737 34.3649C493.864 33.6483 492.82 31.8392 491.686 32.5628C489.786 33.7735 488.207 36.0279 485.89 36.4314C484.985 36.5845 483.977 36.4036 483.51 35.5339C483.072 34.7128 483.26 33.6622 483.503 32.8133C484.533 29.237 488.583 23.6289 492.904 26.1268L492.528 24.7004C491.776 26.4816 491.289 28.3046 491.129 30.2319C490.983 31.9923 491.025 34.024 491.637 35.7008C493.022 39.479 497.315 38.477 499.778 36.4384C504.871 32.2358 505.024 23.6915 500.397 19.0924C497.934 16.6502 494.399 15.7665 491.018 15.9196C487.4 16.0796 483.608 17.1859 480.679 19.3637C474.931 23.6359 473.227 31.4844 476.059 37.9343C477.596 41.455 480.56 44.9479 484.352 46.082C488.68 47.3762 493.154 45.3514 496.981 43.4937C498.192 42.9092 497.134 41.1071 495.93 41.6916V41.6985Z" fill="black"/>
<path d="M450.975 54.8212C450.648 53.1861 450.28 51.551 450.015 49.902C449.646 47.5642 449.278 45.2194 448.7 42.9163C448.478 42.0257 448.22 41.142 448.178 40.2236C448.15 39.6113 448.22 38.9921 448.387 38.4006C448.422 38.2684 448.471 38.1293 448.561 38.0249C448.895 37.6283 449.535 37.9066 449.967 38.1989C452.207 39.7296 454.663 40.7663 456.973 42.1231C459.457 43.5843 461.92 45.0663 464.376 46.5761C469.831 49.9368 475.21 53.4297 480.498 57.0478C480.887 57.3122 481.284 57.5905 481.583 57.9592C482.015 58.495 482.202 59.1977 482.265 59.8866C482.502 62.6489 480.894 65.1954 479.329 67.4776C477.388 70.3095 475.405 73.1135 473.38 75.8897C471.557 78.3876 469.929 81.2055 467.64 83.2859C467.069 83.8078 466.491 84.3296 465.921 84.8515C464.467 86.1735 462.999 87.5094 461.273 88.4557C460.153 89.0679 458.747 89.4993 457.641 88.8592C456.347 88.1147 456.166 86.3613 456.013 84.8793C455.568 80.5793 454.482 76.2863 453.717 72.035C452.819 67.0949 452.137 62.127 451.407 57.173C451.289 56.3868 451.149 55.6005 450.989 54.8212H450.975Z" fill="#4F5E40"/>
<path d="M533.795 39.2564C533.03 34.1981 532.417 29.1118 530.998 24.2065C530.859 23.7195 530.692 23.2046 530.309 22.8706C529.731 22.3627 528.82 22.4323 528.159 22.815C527.498 23.1976 527.032 23.8378 526.58 24.457C523.727 28.3952 520.791 32.2359 517.861 36.1254C514.125 41.0933 510.507 46.1517 507.014 51.3005C506.757 51.6832 506.492 52.0659 506.353 52.5112C506.151 53.1583 506.228 53.875 506.409 54.5429C507.153 57.2078 509.477 59.0655 511.676 60.6867C515.934 63.8317 520.262 66.8792 524.645 69.8294C526.573 71.1236 528.521 72.4108 530.594 73.4336C532.042 74.1502 533.593 74.6025 535.207 74.7625C536.335 74.8739 538.318 75.0826 539.194 74.1294C539.507 73.7884 539.542 73.2805 539.528 72.8213C539.486 71.2418 539.069 69.7042 538.721 68.1665C538.408 66.7958 538.401 65.4111 538.185 64.0335C537.956 62.5793 537.726 61.1181 537.49 59.6639C537.149 57.5 536.696 55.3639 536.342 53.207C535.952 50.8413 534.929 48.74 534.908 46.3048C534.894 44.0087 534.129 41.5456 533.781 39.2564H533.795Z" fill="#4F5E40"/>
<path d="M456.583 547.822C456.054 547.843 455.526 547.836 454.997 547.801C452.45 547.634 449.848 546.66 448.276 544.649C447.114 543.167 446.613 541.282 446.188 539.452C443.85 529.384 442.862 519.072 441.624 508.823C440.531 499.813 438.521 491.115 436.976 482.216C435.891 475.982 436.551 469.908 443.475 467.841C450.815 465.65 458.406 464.286 466.046 463.778C467.765 463.667 469.657 463.646 470.993 464.724C472.238 465.733 472.649 467.41 473.38 468.836C474.827 471.682 477.693 473.637 480.769 474.521C483.844 475.404 487.128 475.321 490.308 474.876C494.928 474.222 499.402 472.83 503.897 471.578C513.568 468.885 523.428 466.853 533.37 465.489C534.393 465.35 535.472 465.225 536.425 465.622C538.227 466.38 538.777 468.607 539.097 470.527C541.727 486.217 544.357 501.9 546.987 517.59C547.432 520.262 547.885 522.962 547.697 525.661C547.592 527.157 547.251 528.73 546.215 529.822C545.108 530.977 543.445 531.36 541.88 531.687C536.613 532.786 531.339 533.851 526.065 534.908C525.633 534.985 525.209 535.082 524.777 535.166C514.062 537.316 503.347 539.459 492.576 541.303C487.838 542.117 483.197 542.388 478.521 543.404C473.206 544.559 467.89 545.721 462.574 546.876C460.605 547.307 458.608 547.739 456.597 547.815L456.583 547.822Z" fill="#4F5E40"/>
<path d="M455.18 455.466L514.684 444.909L528.401 522.226L468.896 532.783L455.18 455.466Z" fill="#B3B3B3" stroke="#D6D1BE" stroke-width="0.1"/>
<path d="M453.442 453.648L512.946 443.091L526.663 520.408L467.159 530.964L453.442 453.648Z" fill="#CCCCCC" stroke="#D6D1BE" stroke-width="0.1"/>
<path d="M451.705 451.842L511.21 441.286L524.926 518.602L465.422 529.159L451.705 451.842Z" fill="#E6E6E6" stroke="#D6D1BE" stroke-width="0.1"/>
<path d="M449.284 450.148L508.788 439.591L522.505 516.908L463 527.465L449.284 450.148Z" fill="#F3EFEA" stroke="#D6D1BE" stroke-width="0.1"/>
<path d="M479.539 449.674L454.19 454.171L454.433 455.542L479.782 451.045L479.539 449.674Z" fill="#CCCCCC"/>
<path d="M495.344 451.109L454.923 458.28L455.166 459.65L495.587 452.479L495.344 451.109Z" fill="#CCCCCC"/>
<path d="M496.071 455.225L455.651 462.396L455.894 463.766L496.315 456.595L496.071 455.225Z" fill="#CCCCCC"/>
<path d="M512.119 470.041L471.699 477.211L471.942 478.582L512.362 471.411L512.119 470.041Z" fill="#CCCCCC"/>
<path d="M512.612 472.78L472.191 479.951L472.434 481.321L512.855 474.15L512.612 472.78Z" fill="#CCCCCC"/>
<path d="M476.931 462.861L456.378 466.507L456.621 467.877L477.174 464.231L476.931 462.861Z" fill="#CCCCCC"/>
<path d="M457.488 545.769C454.517 546.02 451.483 545.582 449.389 543.007C448.262 541.616 447.782 539.841 447.378 538.109C445.152 528.618 444.254 518.891 443.106 509.227C442.097 500.724 440.184 492.528 438.722 484.137C437.7 478.257 438.382 472.517 445.172 470.52C452.367 468.405 459.805 467.069 467.285 466.54C468.968 466.422 470.819 466.394 472.12 467.403C473.331 468.342 473.728 469.929 474.423 471.264C475.822 473.936 478.612 475.766 481.618 476.587C484.624 477.401 487.838 477.304 490.948 476.859C495.471 476.211 499.861 474.869 504.266 473.658C513.749 471.056 523.407 469.073 533.148 467.73C534.15 467.591 535.207 467.465 536.133 467.834C537.893 468.537 538.415 470.638 538.721 472.447C541.198 487.24 543.668 502.032 546.145 516.825C546.57 519.343 546.987 521.89 546.792 524.444C546.681 525.856 546.34 527.345 545.31 528.382C544.225 529.474 542.59 529.85 541.052 530.17C535.896 531.241 530.727 532.278 525.557 533.308C525.132 533.384 524.715 533.475 524.298 533.558C515.475 535.319 506.645 537.079 497.795 538.665C489.035 540.238 480.484 542.492 471.633 543.759C467.333 544.378 463.033 544.99 458.74 545.609C458.323 545.672 457.905 545.721 457.488 545.756V545.769Z" fill="#3C4A30"/>
<path d="M458.031 547.043C454.99 547.28 452.026 546.89 449.946 544.364C448.818 543 448.352 541.254 447.949 539.556C445.757 530.233 444.887 520.68 443.767 511.189C442.786 502.84 440.893 494.789 439.467 486.551C438.465 480.776 439.168 475.133 445.952 473.157C453.153 471.056 460.584 469.72 468.064 469.177C469.748 469.059 471.599 469.024 472.893 470.012C474.103 470.938 474.486 472.489 475.189 473.804C476.58 476.427 479.363 478.216 482.362 479.009C485.361 479.802 488.576 479.691 491.686 479.245C496.209 478.598 500.599 477.262 505.003 476.059C514.487 473.47 524.144 471.494 533.885 470.144C534.887 470.005 535.945 469.88 536.87 470.242C538.624 470.931 539.146 472.99 539.445 474.764C541.873 489.293 544.294 503.821 546.723 518.349C547.133 520.826 547.551 523.324 547.349 525.835C547.238 527.227 546.89 528.688 545.86 529.704C544.768 530.782 543.133 531.158 541.602 531.478C536.439 532.55 531.276 533.579 526.107 534.609C525.682 534.686 525.265 534.776 524.847 534.86C516.025 536.62 507.195 538.373 498.338 539.96C494.42 540.663 490.524 541.504 486.628 542.332C482.731 543.16 479.197 543.898 475.46 544.531C471.724 545.164 468.259 545.631 464.627 546.083C462.602 546.333 460.292 546.862 458.031 547.036V547.043Z" fill="#6E7F59"/>
<path d="M492.985 518.389L453.826 525.337C452.342 525.6 451.353 527.015 451.617 528.499L453.338 538.199C453.601 539.683 455.016 540.672 456.5 540.409L495.659 533.461C497.143 533.198 498.132 531.783 497.868 530.299L496.147 520.598C495.884 519.115 494.469 518.126 492.985 518.389Z" fill="#F3EFEA"/>
<path d="M478.903 523.007L453.554 527.504L453.733 528.511L479.081 524.015L478.903 523.007Z" fill="#CCCCCC"/>
<path d="M494.545 523.544L454.125 530.715L454.303 531.722L494.724 524.552L494.545 523.544Z" fill="#CCCCCC"/>
<path d="M495.079 526.57L454.659 533.741L454.838 534.748L495.258 527.577L495.079 526.57Z" fill="#CCCCCC"/>
<path d="M475.753 533.121L455.2 536.768L455.379 537.775L475.932 534.128L475.753 533.121Z" fill="#CCCCCC"/>
<path opacity="0.5" d="M130.768 483.497L90.154 495.135C81.0519 497.743 75.7875 507.236 78.3958 516.339L88.1172 550.264C90.7255 559.366 100.219 564.63 109.321 562.022L149.935 550.384C159.037 547.775 164.301 538.282 161.693 529.18L151.971 495.255C149.363 486.153 139.87 480.889 130.768 483.497Z" fill="#4F5E40"/>
<path d="M104.062 538.805C103.7 540.266 103.338 541.741 103.213 543.244C103.102 544.503 103.29 546.013 104.396 546.632C104.834 546.876 105.363 546.938 105.864 546.862C107.555 546.604 108.675 544.983 109.35 543.418C110.032 541.845 110.477 540.182 110.93 538.533C110.957 538.422 110.985 538.311 110.964 538.199C110.93 538.067 110.825 537.963 110.707 537.886C110.262 537.587 109.705 537.531 109.169 537.503C108.411 537.462 107.652 537.462 106.894 537.503C105.878 537.552 104.73 537.754 104.166 538.596" fill="#BAB25E"/>
<path d="M121.046 507.835C125.597 511.683 130.154 515.524 134.705 519.371C134.865 519.511 135.039 519.65 135.247 519.698C135.512 519.761 135.79 519.671 136.048 519.573C137.912 518.905 139.833 518.397 141.781 518.035C143.395 517.743 145.336 517.667 146.387 518.926C147.493 520.255 146.881 522.412 145.559 523.525C144.237 524.638 142.449 524.986 140.744 525.299C141.955 526.705 143.159 528.117 144.369 529.523C145.044 530.309 145.733 531.116 146.109 532.083C146.484 533.051 146.491 534.226 145.865 535.054C145.016 536.175 143.284 536.272 142.017 535.66C140.751 535.047 139.826 533.92 138.914 532.842C135.4 528.674 131.476 524.84 127.183 521.473C125.646 520.269 124.052 519.114 122.716 517.695C121.38 516.275 120.295 514.529 120.024 512.594C119.801 511.05 120.114 509.47 120.685 508.016" fill="#BAB25E"/>
<path d="M113.706 526.392C115.557 526.134 117.324 525.452 119.112 524.903C120.9 524.353 122.786 523.929 124.637 524.2C126.487 524.471 128.317 525.564 129.013 527.296C129.104 527.519 129.173 527.755 129.124 527.985C129.006 528.542 128.324 528.723 127.761 528.806C118.319 530.253 109.448 534.171 100.145 536.355C98.7394 536.682 96.8538 536.759 96.2693 535.43C96.0536 534.936 96.1023 534.358 96.2624 533.844C97.0069 531.485 99.6996 530.441 102.065 529.718C102.942 529.453 103.812 529.182 104.688 528.917C105.092 528.792 105.516 528.66 105.836 528.382C106.247 528.02 106.435 527.47 106.595 526.941C108.446 520.972 109.823 514.863 110.714 508.677C110.77 508.266 110.825 507.849 110.714 507.452C110.616 507.091 110.387 506.784 110.15 506.499C108.919 504.989 107.298 503.765 106.435 502.025C105.572 500.286 105.871 497.704 107.68 496.995C108.661 496.612 109.802 496.904 110.672 497.489C111.542 498.073 112.203 498.922 112.843 499.757C113.344 498.115 113.97 496.41 115.278 495.297C116.586 494.184 118.792 493.94 119.933 495.227C121.151 496.598 120.573 498.727 119.961 500.46C117.087 508.559 114.909 516.915 113.483 525.39" fill="#BAB25E"/>
<path d="M81.9083 21.4075L38.0828 60.4958L74.6377 101.481L118.463 62.3927L81.9083 21.4075Z" fill="#BAB25E"/>
<path d="M42.8347 38.5875L94.4369 5.15336C95.7725 4.28801 97.5567 4.66921 98.422 6.0048L138.288 67.5339C139.153 68.8695 138.772 70.6537 137.437 71.5191L85.8343 104.953C84.4987 105.819 82.7145 105.437 81.8491 104.102L41.9832 42.5726C41.1179 41.237 41.4991 39.4528 42.8347 38.5875Z" fill="#E6E6E6" stroke="#D6D1BE"/>
<path d="M96.3269 9.80756L45.9451 42.4509L75.1834 87.5773L125.565 54.934L96.3269 9.80756Z" fill="#7E2512"/>
<path d="M66.3933 35.8546L123.769 13.7496C125.254 13.1775 126.922 13.9175 127.494 15.4026L153.851 83.8161C154.424 85.3011 153.684 86.9688 152.199 87.5409L94.8226 109.646C93.3376 110.218 91.6699 109.478 91.0978 107.993L64.7404 39.5795C64.1682 38.0944 64.9083 36.4268 66.3933 35.8546Z" fill="#F3EFEA" stroke="#D6D1BE"/>
<path d="M125.058 19.2908L69.0391 40.873L88.37 91.0486L144.389 69.4664L125.058 19.2908Z" fill="#6E7F59"/>
<mask id="mask0_101_3456" style="mask-type:luminance" maskUnits="userSpaceOnUse" x="80" y="47" width="66" height="45">
<path d="M80.628 69.3493C83.4251 63.5952 86.5283 58.001 89.9238 52.5808C91.4128 50.2082 93.2775 47.6477 96.0398 47.2024C97.6331 46.945 99.2543 47.4529 100.729 48.1278C103.123 49.2271 105.287 50.7579 107.43 52.2817C110.644 54.5638 113.852 56.846 117.066 59.1282C117.547 59.4691 118.075 59.824 118.667 59.7962C119.063 59.7753 119.425 59.5735 119.759 59.3578C122.737 57.4027 124.143 53.7219 126.919 51.4954C127.482 51.0431 128.123 50.6535 128.832 50.57C129.472 50.4935 130.119 50.6813 130.732 50.8831C135.818 52.5948 140.313 56.0111 143.326 60.4572C144.369 62.0018 145.253 63.7135 145.399 65.5712C145.594 68.0552 144.425 70.4765 142.852 72.4108C140.668 75.0966 137.711 77.0517 134.628 78.6312C121.095 85.5751 105.12 85.8186 90.877 91.1553C90.0421 91.4685 89.1654 91.8024 88.2817 91.6842C87.5581 91.5867 86.911 91.1971 86.3405 90.7448C83.5573 88.5392 82.3188 84.935 81.5813 81.463C80.7533 77.5736 80.3776 73.6076 80.0088 69.6485" fill="white"/>
</mask>
<g mask="url(#mask0_101_3456)">
<path d="M124.894 18.9798L68.8748 40.562L88.2057 90.7375L144.225 69.1553L124.894 18.9798Z" fill="#3C4A30"/>
</g>
<path d="M118.827 39.326C121.709 39.326 124.045 36.9896 124.045 34.1076C124.045 31.2255 121.709 28.8892 118.827 28.8892C115.945 28.8892 113.608 31.2255 113.608 34.1076C113.608 36.9896 115.945 39.326 118.827 39.326Z" fill="#BAB25E"/>
<path d="M556.277 241.496L556.277 241.496C557.16 241.714 558.001 241.237 558.212 240.542L558.212 240.541L569.679 202.983L569.679 202.981C569.886 202.314 569.466 201.553 568.597 201.339L532.423 192.44L532.423 192.44C531.54 192.222 530.699 192.699 530.488 193.393L530.488 193.394L519.021 230.953L519.021 230.955C518.814 231.622 519.234 232.382 520.103 232.597L556.277 241.496ZM556.277 241.496L520.103 232.597L556.277 241.496Z" fill="#E6E6E6" stroke="#D6D1BE"/>
<path d="M558.308 231.851L523.762 223.355L532.619 194.341L567.165 202.843L558.308 231.851Z" fill="#BAB25E"/>
<path d="M559.989 243.083L525.757 229.32L579.586 203.975C580.387 204.298 580.682 205.092 580.362 205.738C580.362 205.738 580.362 205.738 580.361 205.738L562.084 242.391C561.747 243.064 560.82 243.415 559.989 243.083ZM545.354 190.213L579.586 203.975L543.26 190.904C543.596 190.231 544.523 189.88 545.354 190.212C545.354 190.213 545.354 190.213 545.354 190.213ZM524.982 227.557L543.26 190.904L525.757 229.32C524.956 228.997 524.661 228.203 524.982 227.557C524.982 227.557 524.982 227.557 524.982 227.557Z" fill="#E6E6E6" stroke="#D6D1BE"/>
<path d="M564.486 232.894L531.067 219.459L544.468 192.58L577.887 206.016L564.486 232.894Z" fill="#7E2512"/>
<path d="M526.366 234.862L526.366 234.862L556.714 254.649C556.715 254.649 556.715 254.65 556.715 254.65C557.439 255.117 558.437 254.961 558.934 254.345L558.935 254.344L585.214 221.851L526.366 234.862ZM526.366 234.862C525.679 234.415 525.552 233.589 526.023 233.007L552.302 200.514L552.302 200.513M526.366 234.862L552.302 200.513M552.302 200.513C552.8 199.897 553.798 199.74 554.522 200.208C554.522 200.208 554.522 200.208 554.522 200.209L584.871 219.996L584.871 219.996M552.302 200.513L584.871 219.996M584.871 219.996C585.557 220.443 585.684 221.268 585.215 221.851L584.871 219.996Z" fill="#F3EFEA" stroke="#D6D1BE"/>
<path d="M563.282 245.878L533.656 226.556L552.929 202.725L582.556 222.047L563.282 245.878Z" fill="#6E7F59"/>
<mask id="mask1_101_3456" style="mask-type:luminance" maskUnits="userSpaceOnUse" x="533" y="215" width="36" height="32">
<path d="M542.2 216.536C546.069 216.105 549.965 215.868 553.869 215.82C555.58 215.799 557.501 215.889 558.656 217.03C559.317 217.684 559.595 218.582 559.741 219.459C559.971 220.885 559.908 222.339 559.838 223.779C559.734 225.936 559.63 228.093 559.532 230.25C559.518 230.57 559.511 230.925 559.72 231.183C559.859 231.357 560.082 231.468 560.305 231.551C562.295 232.338 564.639 231.885 566.706 232.505C567.123 232.63 567.534 232.804 567.819 233.11C568.07 233.381 568.188 233.736 568.285 234.077C569.099 236.923 568.835 240.012 567.562 242.719C567.116 243.658 566.532 244.577 565.634 245.196C564.424 246.024 562.802 246.212 561.286 246.065C559.184 245.864 557.201 245.084 555.371 244.138C547.328 239.984 541.901 232.713 534.449 227.759C534.011 227.467 533.551 227.168 533.315 226.723C533.127 226.361 533.113 225.95 533.155 225.554C533.364 223.619 534.797 221.977 536.328 220.6C538.039 219.062 539.953 217.705 541.852 216.362" fill="white"/>
</mask>
<g mask="url(#mask1_101_3456)">
<path d="M563.394 245.711L533.767 226.389L553.041 202.558L582.667 221.88L563.394 245.711Z" fill="#3C4A30"/>
</g>
<path d="M572.912 226.458C574.668 226.458 576.092 225.178 576.092 223.598C576.092 222.019 574.668 220.739 572.912 220.739C571.156 220.739 569.732 222.019 569.732 223.598C569.732 225.178 571.156 226.458 572.912 226.458Z" fill="#BAB25E"/>
<path d="M58.321 391.84L8.91305 399.877C7.36144 400.127 5.87245 399.181 5.6011 397.754L0.0417471 369.088C-0.236568 367.662 0.800157 366.305 2.35872 366.054L51.7667 358.018C53.3183 357.767 54.8073 358.714 55.0786 360.14L60.631 388.807C60.9093 390.233 59.8726 391.59 58.314 391.84H58.321Z" fill="#3C4A30"/>
<path d="M12.9168 379.818L12.917 379.818L46.9198 374.286L12.9168 379.818ZM12.9168 379.818C10.5458 380.204 8.35051 378.748 7.94263 376.667C7.9426 376.667 7.94257 376.667 7.94254 376.666L3.80983 355.335C3.80981 355.335 3.80978 355.335 3.80976 355.335C3.41154 353.27 4.9106 351.23 7.26792 350.844C7.268 350.844 7.26808 350.844 7.26817 350.844L41.2709 345.312L41.2711 345.312M12.9168 379.818L41.2711 345.312M41.2711 345.312C43.6419 344.926 45.837 346.382 46.2452 348.463M41.2711 345.312L46.2452 348.463M46.2452 348.463L46.2454 348.464M46.2452 348.463L46.2454 348.464M46.2454 348.464L50.3781 369.795L46.2454 348.464ZM50.3782 369.795C50.7763 371.86 49.2774 373.9 46.9202 374.286L50.3782 369.795Z" fill="#F3EFEA" stroke="#D6D1BE"/>
<path d="M31.5192 369.672C29.7588 370.459 27.8524 371.266 25.8902 371.259C23.9281 371.252 22.4043 370.18 21.2145 368.747C19.0228 366.124 18.7445 362.408 20.7762 359.611C22.8079 356.814 27.0522 355.631 30.392 356.167C32.0828 356.439 33.6065 357.273 34.4624 358.79C35.2347 360.147 35.3599 361.817 34.8172 363.278C34.3371 364.572 32.709 366.639 31.0739 366.284C30.1763 366.089 30.225 364.663 30.225 363.932C30.225 362.77 30.4685 361.622 30.9486 360.565C31.1713 360.077 31.1156 359.416 30.5729 359.138C26.6765 357.148 22.4113 360.912 21.6738 364.718C21.312 366.597 22.3417 368.35 24.3386 368.524C26.6069 368.719 27.9985 366.994 29.7727 365.936C30.9278 365.247 29.8771 363.445 28.7221 364.134C27.5671 364.823 26.6069 366.02 25.2988 366.36C24.8396 366.479 24.1647 366.562 23.8307 366.138C23.5454 365.769 23.6846 365.205 23.8029 364.809C24.45 362.631 26.9896 359.646 29.5223 360.94L29.1465 359.514C28.1794 361.657 27.581 364.6 28.6595 366.82C29.738 369.039 32.5072 368.552 34.1701 367.376C37.8509 364.781 38.2683 359.117 34.9216 356.049C31.4218 352.841 25.104 353.607 21.4302 356.132C17.5756 358.783 16.2536 363.737 18.2435 367.954C19.3498 370.306 21.5485 372.518 24.1299 373.13C27.0453 373.826 29.9467 372.636 32.5629 371.468C33.7874 370.925 32.7298 369.123 31.5122 369.665L31.5192 369.672Z" fill="black"/>
<path d="M1.95525 377.987C1.73955 376.992 1.49603 376.004 1.32208 375.002C1.07856 373.583 0.83503 372.163 0.452346 370.765C0.306231 370.229 0.139241 369.686 0.11141 369.13C0.0905361 368.754 0.139241 368.385 0.250567 368.023C0.278399 367.94 0.306231 367.856 0.361894 367.794C0.584546 367.557 1.00898 367.724 1.28729 367.898C2.76932 368.823 4.39747 369.457 5.92124 370.278C7.56331 371.161 9.19841 372.059 10.8196 372.977C14.4307 375.016 17.9862 377.131 21.486 379.33C21.7435 379.49 22.0079 379.657 22.2027 379.879C22.488 380.206 22.6132 380.631 22.655 381.048C22.815 382.718 21.7504 384.263 20.7137 385.648C19.4265 387.366 18.1184 389.064 16.7825 390.748C15.5788 392.265 14.5003 393.969 12.9835 395.229C12.6008 395.542 12.2251 395.862 11.8424 396.175C10.8822 396.975 9.90811 397.789 8.76702 398.36C8.02948 398.728 7.09713 398.993 6.36655 398.603C5.51073 398.151 5.39244 397.093 5.28808 396.189C4.99584 393.587 4.27918 390.977 3.7643 388.403C3.17288 385.411 2.72062 382.398 2.23356 379.392C2.15703 378.919 2.05962 378.439 1.95525 377.966V377.987Z" fill="#4F5E40"/>
<path d="M56.7484 368.545C56.2405 365.477 55.837 362.395 54.8976 359.424C54.8072 359.124 54.6959 358.818 54.4384 358.609C54.0557 358.303 53.4574 358.345 53.019 358.575C52.5807 358.804 52.2745 359.194 51.9753 359.57C50.0897 361.956 48.1415 364.287 46.2072 366.646C43.7372 369.659 41.3437 372.72 39.0267 375.844C38.8528 376.074 38.6858 376.31 38.5884 376.582C38.4562 376.971 38.5049 377.41 38.6232 377.813C39.1172 379.427 40.6549 380.555 42.1091 381.543C44.927 383.449 47.7867 385.3 50.6881 387.081C51.9614 387.867 53.2556 388.647 54.6263 389.266C55.5865 389.704 56.6093 389.976 57.6738 390.073C58.4183 390.143 59.7334 390.268 60.3109 389.69C60.5196 389.482 60.5405 389.175 60.5335 388.897C60.5057 387.944 60.2343 387.005 59.9978 386.072C59.789 385.244 59.789 384.402 59.6429 383.567C59.4899 382.684 59.3368 381.8 59.1837 380.916C58.9541 379.608 58.6549 378.307 58.4253 377.006C58.1679 375.573 57.4929 374.299 57.479 372.824C57.4651 371.433 56.9641 369.944 56.7345 368.552L56.7484 368.545Z" fill="#4F5E40"/>
<path d="M266.1 12.1279L243.825 6.94032C239.009 5.81855 234.195 8.81389 233.073 13.6306L227.885 35.9051C226.764 40.7218 229.759 45.5358 234.576 46.6576L256.85 51.8451C261.667 52.9669 266.481 49.9716 267.603 45.1549L272.79 22.8804C273.912 18.0637 270.917 13.2496 266.1 12.1279Z" fill="#3C4A30"/>
<path opacity="0.5" d="M265.07 15.6925L243.175 10.5934C238.254 9.44722 233.335 12.5077 232.189 17.4292L227.931 35.7123C226.784 40.6338 229.845 45.5526 234.766 46.6988L256.661 51.7979C261.583 52.9441 266.502 49.8836 267.648 44.9621L271.906 26.679C273.052 21.7575 269.992 16.8387 265.07 15.6925Z" fill="#4F5E40"/>
<path d="M238.301 34.5111C237.751 35.1025 237.208 35.687 236.756 36.3549C236.38 36.9116 236.074 37.663 236.429 38.2405C236.568 38.4701 236.805 38.6302 237.055 38.7276C237.911 39.0477 238.85 38.5815 239.574 38.0248C240.298 37.4682 240.938 36.8142 241.571 36.1601C241.613 36.1184 241.654 36.0697 241.675 36.014C241.696 35.9444 241.675 35.8679 241.641 35.7983C241.508 35.5409 241.265 35.3739 241.021 35.2208C240.68 35.0051 240.325 34.8103 239.964 34.6294C239.477 34.3928 238.892 34.1841 238.412 34.4346" fill="#BAB25E"/>
<path d="M254.234 24.4987L257.602 33.4047C257.644 33.5091 257.685 33.6204 257.769 33.697C257.873 33.7944 258.026 33.8222 258.172 33.8431C259.216 34.017 260.239 34.2745 261.241 34.6154C262.069 34.8937 262.994 35.3669 263.154 36.2227C263.321 37.1272 262.479 37.9691 261.575 38.15C260.67 38.3309 259.745 38.0248 258.875 37.7256C259.07 38.6927 259.272 39.6599 259.467 40.627C259.578 41.1697 259.689 41.7194 259.613 42.2691C259.536 42.8188 259.237 43.3684 258.729 43.5911C258.04 43.8903 257.212 43.4867 256.781 42.8744C256.349 42.2621 256.21 41.4968 256.064 40.7592C255.507 37.9065 254.673 35.1025 253.545 32.4237C253.142 31.4635 252.697 30.5172 252.446 29.5083C252.196 28.4994 252.14 27.4071 252.509 26.4399C252.808 25.6676 253.358 25.0066 253.998 24.4778" fill="#BAB25E"/>
<path d="M246.003 31.234C246.935 31.5958 247.93 31.735 248.904 31.9437C249.878 32.1525 250.866 32.4447 251.66 33.05C252.453 33.6554 253.023 34.6364 252.891 35.6245C252.877 35.7497 252.843 35.8819 252.766 35.9724C252.564 36.202 252.202 36.1046 251.917 36.0002C247.151 34.2259 242.002 33.7528 237.104 32.3543C236.359 32.1455 235.469 31.6863 235.538 30.9209C235.566 30.6357 235.733 30.3782 235.942 30.1834C236.902 29.2789 238.426 29.4946 239.713 29.7659C240.186 29.8703 240.666 29.9677 241.139 30.0721C241.362 30.1208 241.592 30.1695 241.814 30.1208C242.1 30.0582 242.329 29.8494 242.538 29.6476C244.945 27.3515 247.172 24.8606 249.19 22.2166C249.322 22.0427 249.461 21.8618 249.51 21.6461C249.558 21.4512 249.531 21.2495 249.496 21.0546C249.315 20.0318 248.877 19.0438 248.925 18.0071C248.974 16.9704 249.781 15.8502 250.811 15.9893C251.367 16.0658 251.82 16.4972 252.077 16.9982C252.335 17.4992 252.418 18.0628 252.502 18.6194C253.163 17.9862 253.893 17.3531 254.791 17.1721C255.688 16.9912 256.774 17.4505 256.975 18.348C257.191 19.3013 256.363 20.1432 255.633 20.7902C252.195 23.8169 249.016 27.1428 246.156 30.7192" fill="#BAB25E"/>
<path d="M6.96475 211.074C6.7908 210.991 6.62381 210.907 6.45682 210.803C5.67058 210.33 4.99567 209.585 4.82172 208.695C4.69648 208.034 4.8426 207.359 5.00959 206.712C5.92107 203.156 7.31264 199.747 8.60681 196.317C9.7479 193.297 10.5411 190.229 11.5152 187.167C12.1971 185.024 13.4147 183.222 15.9752 183.723C18.6888 184.252 21.3537 185.08 23.8863 186.193C24.4569 186.443 25.0692 186.75 25.3127 187.313C25.5493 187.835 25.4031 188.433 25.3962 189.004C25.3962 190.138 25.9876 191.23 26.8295 192.024C27.6714 192.817 28.736 193.332 29.8284 193.721C31.4148 194.285 33.0846 194.584 34.7337 194.939C38.2822 195.697 41.775 196.692 45.1914 197.917C45.5393 198.042 45.908 198.181 46.1516 198.467C46.6038 199.002 46.416 199.796 46.2003 200.457C44.4469 205.828 42.7004 211.207 40.9471 216.578C40.6479 217.496 40.3487 218.415 39.8408 219.236C39.5624 219.688 39.1937 220.127 38.6788 220.3C38.1361 220.481 37.5377 220.321 36.9811 220.168C35.1094 219.639 33.2447 219.097 31.38 218.554C31.2269 218.505 31.0738 218.464 30.9277 218.422C27.1357 217.323 23.3436 216.209 19.5864 215.006C17.9304 214.477 16.3996 213.788 14.7298 213.336C12.8372 212.814 10.9377 212.299 9.04516 211.777C8.34241 211.582 7.63271 211.387 6.97171 211.081L6.96475 211.074Z" fill="#4F5E40"/>
<path d="M21.8161 181.808L42.5862 188.348L34.225 214.899L13.455 208.358L21.8161 181.808Z" fill="#B3B3B3" stroke="#D6D1BE" stroke-width="0.1"/>
<path d="M21.5583 180.942L42.3283 187.483L33.9672 214.033L13.1972 207.493L21.5583 180.942Z" fill="#CCCCCC" stroke="#D6D1BE" stroke-width="0.1"/>
<path d="M21.2985 180.09L42.0686 186.631L33.7074 213.181L12.9374 206.641L21.2985 180.09Z" fill="#E6E6E6" stroke="#D6D1BE" stroke-width="0.1"/>
<path d="M20.8012 179.157L41.5713 185.698L33.2101 212.248L12.4401 205.707L20.8012 179.157Z" fill="#F3EFEA" stroke="#D6D1BE" stroke-width="0.1"/>
<path d="M30.5599 183.993L21.6868 181.198L21.5384 181.67L30.4115 184.464L30.5599 183.993Z" fill="#CCCCCC"/>
<path d="M35.3916 187.061L21.2424 182.605L21.094 183.077L35.2432 187.532L35.3916 187.061Z" fill="#CCCCCC"/>
<path d="M34.9439 188.483L20.7947 184.027L20.6463 184.499L34.7955 188.954L34.9439 188.483Z" fill="#CCCCCC"/>
<path d="M37.6421 195.809L23.4929 191.354L23.3445 191.825L37.4937 196.281L37.6421 195.809Z" fill="#CCCCCC"/>
<path d="M37.3506 196.756L23.2014 192.3L23.053 192.771L37.2022 197.227L37.3506 196.756Z" fill="#CCCCCC"/>
<path d="M27.5437 187.704L20.3496 185.439L20.2012 185.91L27.3953 188.175L27.5437 187.704Z" fill="#CCCCCC"/>
<path d="M7.5981 210.574C6.60312 210.163 5.70555 209.516 5.45507 208.361C5.32287 207.735 5.46202 207.095 5.62206 206.482C6.47788 203.129 7.79987 199.914 9.02446 196.679C10.1029 193.833 10.8474 190.938 11.7659 188.058C12.413 186.04 13.5749 184.342 16.0867 184.843C18.7446 185.372 21.3469 186.186 23.8378 187.265C24.3944 187.508 24.9928 187.807 25.2433 188.336C25.4799 188.837 25.3407 189.401 25.3407 189.936C25.3407 191.008 25.9391 192.052 26.7671 192.803C27.5951 193.555 28.6457 194.062 29.7172 194.438C31.2758 194.988 32.9039 195.294 34.5182 195.642C37.9901 196.4 41.4134 197.374 44.7602 198.571C45.1011 198.696 45.4629 198.829 45.6995 199.1C46.1448 199.615 45.9708 200.359 45.769 200.979C44.12 206.044 42.4641 211.109 40.815 216.182C40.5367 217.044 40.2514 217.914 39.7644 218.686C39.493 219.111 39.1382 219.521 38.6372 219.681C38.1084 219.848 37.524 219.695 36.9743 219.535C35.1444 219.013 33.3144 218.485 31.4845 217.949C31.3384 217.9 31.1853 217.865 31.0392 217.817C27.9151 216.905 24.798 215.994 21.6948 215.02C18.5916 214.045 15.5092 213.35 12.4617 212.278C10.9796 211.756 9.4976 211.241 8.02253 210.72C7.88337 210.671 7.73725 210.615 7.5981 210.56V210.574Z" fill="#3C4A30"/>
<path d="M7.55628 211.067C6.54043 210.636 5.65678 210.024 5.4063 208.883C5.2741 208.263 5.4063 207.637 5.55937 207.039C6.39432 203.741 7.69544 200.589 8.90611 197.416C9.97067 194.626 10.6943 191.78 11.5988 188.948C12.232 186.965 13.387 185.302 15.8918 185.81C18.5497 186.346 21.152 187.16 23.6429 188.232C24.1995 188.475 24.8049 188.767 25.0554 189.296C25.2919 189.79 25.1597 190.34 25.1667 190.869C25.1806 191.926 25.772 192.949 26.607 193.701C27.4419 194.452 28.4856 194.946 29.5571 195.322C31.1157 195.871 32.7438 196.178 34.3581 196.532C37.83 197.291 41.2533 198.279 44.6001 199.469C44.941 199.594 45.3028 199.726 45.5394 199.997C45.9916 200.505 45.8177 201.243 45.6159 201.848C43.9947 206.823 42.3666 211.798 40.7454 216.773C40.4671 217.622 40.1888 218.478 39.7087 219.229C39.4443 219.647 39.0894 220.05 38.5884 220.203C38.0596 220.363 37.4752 220.203 36.9325 220.05C35.1025 219.528 33.2726 218.999 31.4427 218.464C31.2966 218.415 31.1435 218.38 30.9974 218.332C27.8733 217.42 24.7562 216.509 21.653 215.534C20.2823 215.103 18.8907 214.72 17.5061 214.338C16.1214 213.955 14.8621 213.593 13.5609 213.176C12.2598 212.758 11.07 212.327 9.83151 211.868C9.14268 211.61 8.31469 211.394 7.55628 211.074V211.067Z" fill="#6E7F59"/>
<path d="M21.8648 207.325L11.4653 204.05C10.0321 203.599 8.5045 204.395 8.05319 205.828C7.60187 207.261 8.39779 208.789 9.83091 209.24L20.2304 212.515C21.6636 212.966 23.1912 212.17 23.6425 210.737C24.0938 209.304 23.2979 207.776 21.8648 207.325Z" fill="#F3EFEA"/>
<path d="M18.2366 206.962L9.36353 204.167L9.25484 204.513L18.128 207.307L18.2366 206.962Z" fill="#CCCCCC"/>
<path d="M23.1692 209.728L9.02002 205.272L8.91134 205.617L23.0605 210.073L23.1692 209.728Z" fill="#CCCCCC"/>
<path d="M22.836 210.771L8.68677 206.315L8.57809 206.661L22.7273 211.116L22.836 210.771Z" fill="#CCCCCC"/>
<path d="M15.5549 209.628L8.36084 207.362L8.25216 207.707L15.4462 209.973L15.5549 209.628Z" fill="#CCCCCC"/>
<path d="M575.763 331.21L553.489 326.023C548.672 324.901 543.858 327.896 542.736 332.713L537.549 354.988C536.427 359.804 539.422 364.618 544.239 365.74L566.513 370.928C571.33 372.049 576.144 369.054 577.266 364.237L582.453 341.963C583.575 337.146 580.58 332.332 575.763 331.21Z" fill="#3C4A30"/>
<path opacity="0.5" d="M574.733 334.782L552.838 329.683C547.917 328.537 542.998 331.597 541.852 336.519L537.594 354.802C536.448 359.723 539.508 364.642 544.43 365.788L566.325 370.888C571.246 372.034 576.165 368.973 577.311 364.052L581.569 345.769C582.715 340.847 579.655 335.928 574.733 334.782Z" fill="#4F5E40"/>
<path d="M547.982 353.586C547.432 354.177 546.89 354.762 546.437 355.43C546.062 355.986 545.756 356.738 546.11 357.315C546.25 357.545 546.486 357.705 546.737 357.802C547.592 358.122 548.532 357.656 549.255 357.1C549.979 356.543 550.619 355.889 551.252 355.235C551.294 355.193 551.336 355.144 551.357 355.089C551.378 355.019 551.357 354.943 551.322 354.873C551.19 354.616 550.946 354.449 550.703 354.296C550.362 354.08 550.007 353.885 549.645 353.704C549.158 353.468 548.574 353.259 548.093 353.509" fill="#BAB25E"/>
<path d="M563.916 343.573C565.036 346.544 566.163 349.515 567.283 352.479C567.325 352.584 567.367 352.695 567.45 352.772C567.555 352.869 567.708 352.897 567.854 352.918C568.897 353.092 569.92 353.349 570.922 353.69C571.75 353.968 572.676 354.442 572.836 355.297C573.003 356.202 572.161 357.044 571.256 357.225C570.352 357.406 569.426 357.099 568.557 356.8C568.751 357.767 568.953 358.735 569.148 359.702C569.259 360.244 569.371 360.794 569.294 361.344C569.218 361.893 568.918 362.443 568.41 362.666C567.722 362.965 566.894 362.561 566.462 361.949C566.031 361.337 565.892 360.571 565.746 359.834C565.189 356.981 564.354 354.177 563.227 351.498C562.823 350.538 562.378 349.592 562.127 348.583C561.877 347.574 561.821 346.482 562.19 345.515C562.489 344.742 563.039 344.081 563.679 343.552" fill="#BAB25E"/>
<path d="M555.691 350.309C556.624 350.671 557.619 350.81 558.593 351.018C559.567 351.227 560.555 351.519 561.348 352.125C562.141 352.73 562.712 353.711 562.58 354.699C562.566 354.824 562.531 354.957 562.454 355.047C562.253 355.277 561.891 355.179 561.606 355.075C556.839 353.301 551.691 352.827 546.792 351.429C546.048 351.22 545.157 350.761 545.227 349.996C545.255 349.71 545.422 349.453 545.63 349.258C546.59 348.354 548.114 348.569 549.401 348.841C549.875 348.945 550.355 349.042 550.828 349.147C551.05 349.195 551.28 349.244 551.503 349.195C551.788 349.133 552.018 348.924 552.226 348.722C554.634 346.426 556.86 343.935 558.878 341.291C559.01 341.117 559.149 340.936 559.198 340.721C559.247 340.526 559.219 340.324 559.184 340.129C559.003 339.107 558.565 338.119 558.614 337.082C558.662 336.045 559.47 334.925 560.499 335.064C561.056 335.141 561.508 335.572 561.766 336.073C562.023 336.574 562.107 337.137 562.19 337.694C562.851 337.061 563.582 336.428 564.479 336.247C565.377 336.066 566.462 336.525 566.664 337.423C566.88 338.376 566.052 339.218 565.321 339.865C561.884 342.892 558.704 346.218 555.844 349.794" fill="#BAB25E"/>
<path d="M330.506 551.896L312.468 569.182C312.468 569.182 312.468 569.183 312.468 569.183C312.13 569.503 311.629 569.478 311.318 569.106C311.318 569.106 311.318 569.106 311.318 569.106L292.708 546.697C292.707 546.697 292.707 546.697 292.707 546.696C292.385 546.305 292.42 545.703 292.774 545.357C292.774 545.356 292.775 545.356 292.775 545.355L310.812 528.069C310.812 528.069 310.813 528.069 310.813 528.069C311.15 527.749 311.651 527.773 311.962 528.145C311.963 528.145 311.963 528.146 311.963 528.146L330.573 550.554C330.573 550.555 330.573 550.555 330.573 550.555C330.895 550.947 330.86 551.549 330.507 551.895C330.507 551.895 330.506 551.896 330.506 551.896Z" fill="#E6E6E6" stroke="#D6D1BE"/>
<path d="M325.504 546.758L308.276 563.269L293.901 545.957L311.129 529.446L325.504 546.758Z" fill="#BAB25E"/>
<path d="M312.492 564.507L312.492 564.507C312.124 564.763 311.626 564.664 311.37 564.236L311.369 564.235L295.693 538.248C295.693 538.248 295.693 538.248 295.693 538.248C295.425 537.801 295.554 537.213 295.941 536.939C295.942 536.939 295.942 536.938 295.942 536.938L316.229 522.815L316.229 522.815C316.597 522.559 317.095 522.659 317.352 523.087L317.352 523.088L333.028 549.074C333.028 549.075 333.028 549.075 333.028 549.075C333.296 549.522 333.167 550.11 332.78 550.384C332.78 550.384 332.779 550.384 332.779 550.384L312.492 564.507Z" fill="#E6E6E6" stroke="#D6D1BE"/>
<path d="M316.086 566.452L316.085 566.453C315.694 566.617 315.207 566.421 315.03 565.925L314.559 566.093L315.03 565.925L304.669 537.029C304.669 537.029 304.669 537.029 304.669 537.029C304.488 536.522 304.733 535.99 305.155 535.815C305.155 535.815 305.155 535.815 305.155 535.815L327.713 526.478L327.714 526.477C328.105 526.314 328.592 526.51 328.769 527.006L328.769 527.006L339.13 555.902C339.311 556.409 339.066 556.94 338.644 557.115C338.644 557.115 338.644 557.115 338.644 557.115L316.086 566.452Z" fill="#F3EFEA" stroke="#D6D1BE"/>
<path d="M335.697 549.742L313.668 558.857L306.07 537.67L328.092 528.556L335.697 549.742Z" fill="#6E7F59"/>
<mask id="mask2_101_3456" style="mask-type:luminance" maskUnits="userSpaceOnUse" x="310" y="540" width="27" height="20">
<path d="M310.628 549.694C311.727 547.266 312.945 544.9 314.281 542.611C314.865 541.609 315.596 540.53 316.688 540.336C317.314 540.224 317.954 540.44 318.532 540.725C319.471 541.191 320.32 541.838 321.169 542.479C322.435 543.446 323.695 544.406 324.961 545.373C325.149 545.519 325.358 545.665 325.587 545.651C325.74 545.644 325.886 545.561 326.019 545.463C327.187 544.635 327.744 543.084 328.836 542.145C329.059 541.957 329.31 541.79 329.588 541.755C329.838 541.72 330.096 541.804 330.332 541.887C332.329 542.611 334.104 544.051 335.279 545.93C335.69 546.584 336.038 547.307 336.094 548.087C336.17 549.137 335.711 550.16 335.092 550.974C334.229 552.108 333.067 552.936 331.856 553.604C326.533 556.533 320.25 556.638 314.656 558.892C314.329 559.024 313.981 559.164 313.634 559.115C313.348 559.073 313.098 558.906 312.868 558.718C311.776 557.786 311.289 556.262 310.996 554.801C310.669 553.159 310.523 551.482 310.377 549.812" fill="white"/>
</mask>
<g mask="url(#mask2_101_3456)">
<path d="M335.634 549.61L313.606 558.725L306.008 537.538L328.029 528.424L335.634 549.61Z" fill="#3C4A30"/>
</g>
<path d="M325.643 537.017C326.777 537.017 327.695 536.029 327.695 534.811C327.695 533.593 326.777 532.605 325.643 532.605C324.509 532.605 323.59 533.593 323.59 534.811C323.59 536.029 324.509 537.017 325.643 537.017Z" fill="#BAB25E"/>
</g>
<defs>
<clipPath id="clip0_101_3456">
<rect width="586" height="569.906" fill="white"/>
</clipPath>
</defs>
</svg>
