<svg width="1523" height="1470" viewBox="0 0 1523 1470" fill="none" xmlns="http://www.w3.org/2000/svg">
<path d="M102.767 153.277L220.885 47.9266C224.266 44.9106 229.453 45.2069 232.469 48.5885L354.294 185.179C357.31 188.56 357.014 193.747 353.633 196.763L235.515 302.113C232.133 305.129 226.947 304.833 223.931 301.451L102.105 164.861C99.0887 161.479 99.3851 156.293 102.767 153.277Z" fill="#E6E6E6" stroke="#D6D1BE"/>
<path d="M345.669 1230.36L241.125 1260.32C217.695 1267.03 204.144 1291.47 210.858 1314.9L240.816 1419.44C247.53 1442.87 271.966 1456.42 295.396 1449.71L399.94 1419.75C423.37 1413.04 436.921 1388.6 430.207 1365.17L400.249 1260.63C393.535 1237.2 369.099 1223.65 345.669 1230.36Z" fill="#3C4A30"/>
<path d="M745.118 1162.66C994.386 1162.66 1196.46 966.2 1196.46 723.855C1196.46 481.511 994.386 285.052 745.118 285.052C495.849 285.052 293.777 481.511 293.777 723.855C293.777 966.2 495.849 1162.66 745.118 1162.66Z" fill="#3C4A30"/>
<path d="M745.118 1161.76C978.065 1161.76 1166.91 972.922 1166.91 739.975C1166.91 507.027 978.065 318.186 745.118 318.186C512.171 318.186 323.33 507.027 323.33 739.975C323.33 972.922 512.171 1161.76 745.118 1161.76Z" fill="#4F5E40"/>
<path opacity="0.6" d="M932.688 978.63C1130.34 832.696 1204.22 597.452 1097.71 453.196C991.204 308.941 744.633 310.302 546.983 456.236C349.332 602.169 275.447 837.414 381.957 981.669C488.467 1125.92 735.037 1124.56 932.688 978.63Z" fill="#6E7F59"/>
<path d="M917.955 318.916C894.314 353.93 853.675 372.736 815.078 389.876C789.144 401.393 763.228 412.909 737.294 424.443C732.279 426.664 727.174 428.957 723.198 432.736C717.736 437.912 715.013 445.309 712.918 452.527C709.658 463.756 707.473 475.291 706.381 486.915C705.736 493.882 705.109 501.655 699.861 506.276C694.094 511.362 684.942 510.288 678.261 506.473C671.581 502.658 666.44 496.694 660.405 491.947C644.303 479.285 621.271 476.079 602.321 483.87C583.372 491.661 569.259 510.144 566.716 530.472C566.143 535.004 566.161 539.786 568.095 543.905C573.808 556.102 590.787 555.601 604.22 556.819C626.16 558.807 646.954 571.004 659.42 589.183C671.885 607.362 675.736 631.146 669.682 652.334C668.661 655.881 667.049 659.731 663.646 661.128C658.202 663.349 652.847 658.03 649.229 653.391C628.954 627.475 603.217 604.568 571.963 594.251C545.689 585.583 516.065 585.887 492.71 571.075C465.379 553.756 453.236 518.795 455.206 486.503C457.176 454.21 470.967 423.888 485.833 395.142C495.379 376.73 506.286 357.924 522.226 344.259C539.779 329.214 564.495 324.611 585.593 316.229C663.879 285.155 751.085 276.987 833.777 292.999C862.72 298.605 891.215 307.148 917.705 320.08" fill="#BAB25E"/>
<path d="M682.02 709.026C681.232 739.133 681.697 770.601 695.596 797.324C709.942 824.923 736.539 843.568 760.091 863.914C766.521 869.466 772.861 875.305 777.392 882.505C787.583 898.696 787.136 919.597 782.031 938.027C776.927 956.457 767.685 973.436 760.933 991.346C747.697 1026.43 744.33 1065.19 751.297 1102.03C752.999 1111.01 756.957 1121.52 765.948 1123.11C776.945 1125.06 784.216 1112.49 789.088 1102.43C805.404 1068.79 832.789 1041.73 862.234 1018.71C891.678 995.698 923.666 976.033 952.967 952.821C992.012 921.89 1026.11 884.708 1053.59 843.138C1066.14 824.117 1077.71 802.643 1076.05 779.915C1074.54 759.461 1062.22 740.996 1046.55 727.76C1030.88 714.524 1011.96 705.802 993.212 697.491C934.609 671.539 874.789 648.095 813.159 630.507C783.912 622.16 750.813 614.513 721.96 628.537C709.047 634.805 696.832 645.444 689.954 658.214C682.092 672.811 682.45 692.942 682.038 709.061L682.02 709.026Z" fill="#BAB25E"/>
<path d="M1041.01 391.905C1038.42 389.63 1035.77 387.445 1033.04 385.332C1029.37 382.466 1025.59 379.726 1021.76 377.075C1018.29 374.675 1014.7 372.687 1011.52 369.965C1004.8 364.234 997.475 359.183 989.72 354.956C988.161 354.114 984.633 352.252 982.967 353.756C981.839 354.777 981.033 357.535 980.46 358.932C978.937 362.657 978.006 366.616 977.63 370.628C976.412 384.132 981.642 398.442 992.316 407.057C1000.57 413.702 1011 416.872 1020.85 420.777C1041.68 428.997 1061 441.015 1077.57 456.078C1083.52 461.469 1089.23 467.433 1092.35 474.83C1094.71 480.418 1095.46 486.543 1095.91 492.597C1099.6 541.098 1086.7 592.859 1107.71 636.739C1122.01 666.614 1151.18 690.399 1154.24 723.372C1155.09 732.399 1153.81 741.497 1154.14 750.56C1154.62 764.315 1162.3 784.303 1179.87 781.491C1196.01 778.912 1195.33 753.443 1196.51 740.763C1200.36 699.211 1193.13 657.48 1184.66 616.931C1181.18 600.292 1177.47 583.653 1171.65 567.677C1162.88 543.534 1149.48 521.361 1135.76 499.636C1122.74 478.985 1109.27 458.478 1093.13 440.084C1085.2 431.039 1076.84 423.571 1067.49 416.174C1058.08 408.723 1050.01 399.821 1041 391.923L1041.01 391.905Z" fill="#BAB25E"/>
<path d="M1368.68 59.4329L1176.44 93.5374C1170.4 94.6104 1166.36 100.383 1167.43 106.432L1189.03 228.13C1190.1 234.179 1195.87 238.212 1201.92 237.139L1394.16 203.034C1400.21 201.961 1404.24 196.189 1403.17 190.14L1381.58 68.4413C1380.5 62.3931 1374.73 58.3599 1368.68 59.4329Z" fill="#3C4A30"/>
<path d="M1195.34 27.3276L1327.66 3.85394C1337.49 2.10865 1346.88 8.66888 1348.63 18.5066L1364.7 109.097C1366.45 118.935 1359.89 128.325 1350.05 130.07L1217.73 153.544C1207.9 155.289 1198.51 148.729 1196.76 138.891L1180.69 48.3005C1178.94 38.4627 1185.5 29.0728 1195.34 27.3276Z" fill="#F3EFEA" stroke="#D6D1BE"/>
<path d="M1290.58 110.337C1283.13 113.955 1274.94 117.805 1266.43 117.232C1258.46 116.695 1251.93 110.856 1247.65 104.498C1239.28 92.0323 1238.96 75.5369 1248.17 63.3937C1252.86 57.1967 1259.72 53.2922 1267.1 51.1967C1274.48 49.1012 1282.03 48.4385 1289.2 50.6236C1303.11 54.8863 1308.85 71.5429 1303.17 84.3667C1301.63 87.8413 1299.28 91.101 1296.2 93.3756C1293.68 95.2203 1288.73 97.8711 1285.88 95.2562C1283.04 92.6413 1283.38 86.5696 1283.47 83.1667C1283.59 78.4204 1284.61 73.6742 1286.46 69.2862C1287.01 67.9608 1286.89 66.4205 1285.49 65.6146C1280.3 62.6056 1274.08 62.9996 1268.8 65.5787C1263.51 68.1578 1259.52 73.2981 1256.69 78.4384C1254.11 83.1309 1251.75 88.6472 1252.84 94.1099C1253.93 99.5726 1259.29 102.814 1264.79 102.152C1272.18 101.256 1276.45 95.2024 1282.36 91.4592C1285.26 89.6144 1282.57 84.9577 1279.65 86.8204C1274.76 89.9368 1270.7 95.7397 1264.73 96.7785C1262.4 97.1726 1259.81 96.7069 1258.61 94.4681C1257.48 92.3547 1257.96 89.6502 1258.59 87.4652C1261.24 78.2593 1271.66 63.8235 1282.79 70.2533L1281.82 66.5817C1279.88 71.1668 1278.63 75.8593 1278.22 80.8204C1277.84 85.3518 1277.95 90.5816 1279.53 94.898C1283.09 104.623 1294.14 102.044 1300.48 96.7965C1313.59 85.9786 1313.99 63.9847 1302.08 52.146C1295.74 45.8595 1286.64 43.5848 1277.93 43.9789C1268.62 44.3908 1258.86 47.2386 1251.32 52.8445C1236.52 63.8414 1232.14 84.0443 1239.43 100.647C1243.38 109.71 1251.01 118.701 1260.77 121.62C1271.91 124.952 1283.43 119.74 1293.28 114.958C1296.4 113.453 1293.68 108.814 1290.58 110.319V110.337Z" fill="black"/>
<path d="M1174.86 144.116C1174.02 139.907 1173.07 135.698 1172.39 131.453C1171.44 125.435 1170.49 119.399 1169 113.471C1168.43 111.178 1167.77 108.904 1167.66 106.54C1167.59 104.964 1167.77 103.37 1168.2 101.847C1168.29 101.507 1168.41 101.149 1168.64 100.88C1169.5 99.8591 1171.15 100.576 1172.26 101.328C1178.03 105.268 1184.35 107.937 1190.3 111.429C1196.69 115.19 1203.03 119.005 1209.35 122.892C1223.4 131.543 1237.24 140.533 1250.85 149.847C1251.86 150.527 1252.88 151.244 1253.65 152.193C1254.76 153.572 1255.24 155.381 1255.4 157.154C1256.01 164.265 1251.87 170.82 1247.84 176.694C1242.85 183.984 1237.74 191.202 1232.53 198.348C1227.84 204.778 1223.65 212.032 1217.75 217.387C1216.29 218.73 1214.8 220.073 1213.33 221.417C1209.59 224.82 1205.81 228.258 1201.37 230.694C1198.48 232.27 1194.86 233.381 1192.02 231.733C1188.69 229.817 1188.22 225.303 1187.83 221.488C1186.68 210.42 1183.89 199.369 1181.92 188.426C1179.6 175.709 1177.85 162.921 1175.97 150.169C1175.66 148.145 1175.31 146.122 1174.89 144.116H1174.86Z" fill="#4F5E40"/>
<path d="M1388.05 104.05C1386.08 91.0293 1384.5 77.9368 1380.85 65.3101C1380.49 64.0563 1380.06 62.731 1379.07 61.8713C1377.59 60.5638 1375.24 60.7429 1373.54 61.728C1371.84 62.7131 1370.64 64.3608 1369.47 65.9548C1362.13 76.0921 1354.57 85.9786 1347.03 95.9905C1337.41 108.778 1328.1 121.799 1319.11 135.053C1318.45 136.038 1317.77 137.023 1317.41 138.169C1316.89 139.835 1317.08 141.68 1317.55 143.399C1319.47 150.259 1325.45 155.041 1331.11 159.214C1342.07 167.309 1353.21 175.154 1364.49 182.748C1369.45 186.079 1374.47 189.393 1379.81 192.026C1383.53 193.87 1387.53 195.035 1391.68 195.447C1394.58 195.733 1399.69 196.27 1401.94 193.817C1402.75 192.939 1402.84 191.632 1402.8 190.45C1402.7 186.384 1401.62 182.426 1400.73 178.468C1399.92 174.939 1399.9 171.375 1399.35 167.829C1398.76 164.086 1398.16 160.324 1397.56 156.581C1396.68 151.011 1395.51 145.513 1394.6 139.96C1393.6 133.871 1390.96 128.462 1390.91 122.193C1390.88 116.283 1388.9 109.943 1388.01 104.05H1388.05Z" fill="#4F5E40"/>
<path d="M1195.34 27.3276L1327.66 3.85394C1337.49 2.10865 1346.88 8.66888 1348.63 18.5066L1364.7 109.097C1366.45 118.935 1359.89 128.325 1350.05 130.07L1217.73 153.544C1207.9 155.289 1198.51 148.729 1196.76 138.891L1180.69 48.3005C1178.94 38.4627 1185.5 29.0728 1195.34 27.3276Z" fill="#F3EFEA" stroke="#D6D1BE"/>
<path d="M1290.58 110.337C1283.13 113.955 1274.94 117.805 1266.43 117.232C1258.46 116.695 1251.93 110.856 1247.65 104.498C1239.28 92.0323 1238.96 75.5369 1248.17 63.3937C1252.86 57.1967 1259.72 53.2922 1267.1 51.1967C1274.48 49.1012 1282.03 48.4385 1289.2 50.6236C1303.11 54.8863 1308.85 71.5429 1303.17 84.3667C1301.63 87.8413 1299.28 91.101 1296.2 93.3756C1293.68 95.2203 1288.73 97.8711 1285.88 95.2562C1283.04 92.6413 1283.38 86.5696 1283.47 83.1667C1283.59 78.4204 1284.61 73.6742 1286.46 69.2862C1287.01 67.9608 1286.89 66.4205 1285.49 65.6146C1280.3 62.6056 1274.08 62.9996 1268.8 65.5787C1263.51 68.1578 1259.52 73.2981 1256.69 78.4384C1254.11 83.1309 1251.75 88.6472 1252.84 94.1099C1253.93 99.5726 1259.29 102.814 1264.79 102.152C1272.18 101.256 1276.45 95.2024 1282.36 91.4592C1285.26 89.6144 1282.57 84.9577 1279.65 86.8204C1274.76 89.9368 1270.7 95.7397 1264.73 96.7785C1262.4 97.1726 1259.81 96.7069 1258.61 94.4681C1257.48 92.3547 1257.96 89.6502 1258.59 87.4652C1261.24 78.2593 1271.66 63.8235 1282.79 70.2533L1281.82 66.5817C1279.88 71.1668 1278.63 75.8593 1278.22 80.8204C1277.84 85.3518 1277.95 90.5816 1279.53 94.898C1283.09 104.623 1294.14 102.044 1300.48 96.7965C1313.59 85.9786 1313.99 63.9847 1302.08 52.146C1295.74 45.8595 1286.64 43.5848 1277.93 43.9789C1268.62 44.3908 1258.86 47.2386 1251.32 52.8445C1236.52 63.8414 1232.14 84.0443 1239.43 100.647C1243.38 109.71 1251.01 118.701 1260.77 121.62C1271.91 124.952 1283.43 119.74 1293.28 114.958C1296.4 113.453 1293.68 108.814 1290.58 110.319V110.337Z" fill="black"/>
<path d="M1174.86 144.116C1174.02 139.907 1173.07 135.698 1172.39 131.453C1171.44 125.435 1170.49 119.399 1169 113.471C1168.43 111.178 1167.77 108.904 1167.66 106.54C1167.59 104.964 1167.77 103.37 1168.2 101.847C1168.29 101.507 1168.41 101.149 1168.64 100.88C1169.5 99.8591 1171.15 100.576 1172.26 101.328C1178.03 105.268 1184.35 107.937 1190.3 111.429C1196.69 115.19 1203.03 119.005 1209.35 122.892C1223.4 131.543 1237.24 140.533 1250.85 149.847C1251.86 150.527 1252.88 151.244 1253.65 152.193C1254.76 153.572 1255.24 155.381 1255.4 157.154C1256.01 164.265 1251.87 170.82 1247.84 176.694C1242.85 183.984 1237.74 191.202 1232.53 198.348C1227.84 204.778 1223.65 212.032 1217.75 217.387C1216.29 218.73 1214.8 220.073 1213.33 221.417C1209.59 224.82 1205.81 228.258 1201.37 230.694C1198.48 232.27 1194.86 233.381 1192.02 231.733C1188.69 229.817 1188.22 225.303 1187.83 221.488C1186.68 210.42 1183.89 199.369 1181.92 188.426C1179.6 175.709 1177.85 162.921 1175.97 150.169C1175.66 148.145 1175.31 146.122 1174.89 144.116H1174.86Z" fill="#4F5E40"/>
<path d="M1388.05 104.05C1386.08 91.0293 1384.5 77.9368 1380.85 65.3101C1380.49 64.0563 1380.06 62.731 1379.07 61.8713C1377.59 60.5638 1375.24 60.7429 1373.54 61.728C1371.84 62.7131 1370.64 64.3608 1369.47 65.9548C1362.13 76.0921 1354.57 85.9786 1347.03 95.9905C1337.41 108.778 1328.1 121.799 1319.11 135.053C1318.45 136.038 1317.77 137.023 1317.41 138.169C1316.89 139.835 1317.08 141.68 1317.55 143.399C1319.47 150.259 1325.45 155.041 1331.11 159.214C1342.07 167.309 1353.21 175.154 1364.49 182.748C1369.45 186.079 1374.47 189.393 1379.81 192.026C1383.53 193.87 1387.53 195.035 1391.68 195.447C1394.58 195.733 1399.69 196.27 1401.94 193.817C1402.75 192.939 1402.84 191.632 1402.8 190.45C1402.7 186.384 1401.62 182.426 1400.73 178.468C1399.92 174.939 1399.9 171.375 1399.35 167.829C1398.76 164.086 1398.16 160.324 1397.56 156.581C1396.68 151.011 1395.51 145.513 1394.6 139.96C1393.6 133.871 1390.96 128.462 1390.91 122.193C1390.88 116.283 1388.9 109.943 1388.01 104.05H1388.05Z" fill="#4F5E40"/>
<path d="M137.896 1001.26L7.43219 1024.4C3.32752 1025.13 0.59032 1029.05 1.31852 1033.15L15.9708 1115.74C16.699 1119.85 20.6169 1122.59 24.7215 1121.86L155.185 1098.71C159.29 1097.98 162.027 1094.07 161.299 1089.96L146.647 1007.37C145.918 1003.27 142.001 1000.53 137.896 1001.26Z" fill="#3C4A30"/>
<path d="M20.2858 979.627L110.082 963.696C116.671 962.527 122.96 966.921 124.129 973.51L135.036 1034.99C136.205 1041.58 131.811 1047.87 125.222 1049.04L35.4259 1064.97C28.8368 1066.14 22.5477 1061.74 21.3788 1055.15L10.4718 993.674C9.3029 987.085 13.6968 980.796 20.2858 979.627Z" fill="#F3EFEA" stroke="#D6D1BE"/>
<path d="M85.2784 1035.7C80.1918 1038.13 74.6039 1040.72 68.7959 1040.34C63.3547 1039.98 58.8917 1036.05 55.9693 1031.77C50.2591 1023.37 50.0391 1012.27 56.324 1004.1C59.5275 999.926 64.2106 997.298 69.2483 995.888C74.286 994.477 79.4459 994.031 84.3369 995.502C93.8376 998.371 97.7503 1009.58 93.8742 1018.21C92.8227 1020.55 91.221 1022.75 89.1178 1024.28C87.3938 1025.52 84.019 1027.3 82.0748 1025.54C80.1307 1023.78 80.363 1019.7 80.4241 1017.41C80.5097 1014.21 81.2067 1011.02 82.4661 1008.06C82.8452 1007.17 82.7595 1006.13 81.8058 1005.59C78.2599 1003.57 74.0169 1003.83 70.4099 1005.57C66.8028 1007.3 64.0761 1010.76 62.1442 1014.22C60.3835 1017.38 58.7694 1021.1 59.5153 1024.77C60.2612 1028.45 63.9171 1030.63 67.6709 1030.19C72.7209 1029.58 75.631 1025.51 79.666 1022.99C81.6469 1021.75 79.8127 1018.61 77.8197 1019.87C74.4816 1021.96 71.706 1025.87 67.6343 1026.57C66.0447 1026.83 64.2717 1026.52 63.4525 1025.01C62.6821 1023.59 63.0124 1021.77 63.4403 1020.3C65.25 1014.1 72.3662 1004.39 79.9595 1008.71L79.2992 1006.24C77.9786 1009.33 77.1227 1012.49 76.8415 1015.83C76.5847 1018.88 76.6581 1022.4 77.7341 1025.3C80.1674 1031.85 87.7116 1030.11 92.0401 1026.58C100.991 1019.3 101.26 1004.5 93.1284 996.526C88.7999 992.295 82.5884 990.764 76.6459 991.029C70.2876 991.306 63.6237 993.223 58.476 996.997C48.3762 1004.4 45.3804 1018 50.357 1029.17C53.0592 1035.27 58.2681 1041.33 64.932 1043.29C72.5375 1045.53 80.3997 1042.02 87.1248 1038.81C89.2523 1037.79 87.3938 1034.67 85.2784 1035.68V1035.7Z" fill="black"/>
<path d="M5.92975 1058.78C5.35461 1055.92 4.70605 1053.05 4.24105 1050.16C3.59249 1046.06 2.94392 1041.96 1.92826 1037.92C1.53668 1036.36 1.08391 1034.81 1.01049 1033.2C0.961542 1032.13 1.0839 1031.04 1.37758 1030C1.43877 1029.77 1.52442 1029.53 1.6835 1029.34C2.27088 1028.65 3.39669 1029.14 4.15538 1029.65C8.09566 1032.33 12.4153 1034.15 16.4779 1036.53C20.8465 1039.09 25.1783 1041.69 29.4979 1044.33C39.0917 1050.22 48.5509 1056.35 57.8509 1062.69C58.5362 1063.15 59.2337 1063.64 59.7598 1064.29C60.5185 1065.22 60.8489 1066.46 60.959 1067.66C61.3751 1072.5 58.5484 1076.97 55.7951 1080.97C52.381 1085.93 48.8934 1090.85 45.3325 1095.71C42.1264 1100.09 39.263 1105.03 35.2371 1108.68C34.2336 1109.59 33.218 1110.51 32.2146 1111.42C29.6571 1113.74 27.0751 1116.08 24.0403 1117.74C22.0702 1118.81 19.5983 1119.57 17.6526 1118.45C15.3766 1117.14 15.0585 1114.07 14.7892 1111.47C14.0061 1103.93 12.0971 1096.41 10.7511 1088.96C9.17253 1080.3 7.9733 1071.59 6.68843 1062.91C6.4804 1061.53 6.23562 1060.15 5.95417 1058.78H5.92975Z" fill="#4F5E40"/>
<path d="M151.009 1031.43C149.676 1022.54 148.609 1013.6 146.137 1004.98C145.894 1004.13 145.604 1003.22 144.937 1002.64C143.931 1001.74 142.343 1001.87 141.192 1002.54C140.041 1003.21 139.229 1004.34 138.441 1005.42C133.472 1012.34 128.357 1019.09 123.255 1025.93C116.747 1034.66 110.444 1043.55 104.36 1052.6C103.912 1053.27 103.451 1053.94 103.209 1054.72C102.857 1055.86 102.991 1057.12 103.306 1058.29C104.603 1062.98 108.651 1066.24 112.48 1069.09C119.898 1074.62 127.436 1079.97 135.072 1085.16C138.429 1087.43 141.822 1089.69 145.434 1091.49C147.955 1092.75 150.658 1093.54 153.469 1093.82C155.433 1094.02 158.887 1094.39 160.414 1092.71C160.959 1092.11 161.02 1091.22 160.996 1090.41C160.923 1087.64 160.196 1084.94 159.59 1082.23C159.044 1079.82 159.032 1077.39 158.657 1074.97C158.257 1072.41 157.857 1069.85 157.445 1067.29C156.851 1063.49 156.063 1059.74 155.445 1055.95C154.766 1051.79 152.985 1048.1 152.948 1043.82C152.924 1039.78 151.591 1035.45 150.985 1031.43H151.009Z" fill="#4F5E40"/>
<path d="M1189.29 1413.15C1187.93 1413.21 1186.57 1413.19 1185.21 1413.1C1178.66 1412.67 1171.96 1410.16 1167.91 1404.99C1164.92 1401.17 1163.63 1396.32 1162.54 1391.61C1156.52 1365.69 1153.98 1339.15 1150.79 1312.77C1147.98 1289.57 1142.8 1267.18 1138.82 1244.28C1136.03 1228.23 1137.73 1212.59 1155.55 1207.27C1174.45 1201.63 1193.99 1198.12 1213.65 1196.81C1218.08 1196.53 1222.95 1196.47 1226.39 1199.25C1229.59 1201.85 1230.65 1206.16 1232.53 1209.83C1236.26 1217.16 1243.63 1222.19 1251.55 1224.47C1259.47 1226.74 1267.92 1226.53 1276.11 1225.38C1288 1223.7 1299.51 1220.11 1311.08 1216.89C1335.98 1209.96 1361.36 1204.73 1386.95 1201.22C1389.59 1200.86 1392.36 1200.54 1394.82 1201.56C1399.45 1203.51 1400.87 1209.24 1401.69 1214.19C1408.46 1254.57 1415.23 1294.94 1422 1335.33C1423.15 1342.21 1424.31 1349.16 1423.83 1356.11C1423.56 1359.96 1422.68 1364.01 1420.02 1366.82C1417.17 1369.79 1412.89 1370.78 1408.86 1371.62C1395.3 1374.45 1381.72 1377.19 1368.15 1379.91C1367.04 1380.11 1365.94 1380.36 1364.83 1380.57C1337.25 1386.11 1309.67 1391.62 1281.94 1396.37C1269.75 1398.47 1257.8 1399.16 1245.77 1401.78C1232.08 1404.75 1218.4 1407.74 1204.72 1410.72C1199.65 1411.83 1194.51 1412.94 1189.33 1413.13L1189.29 1413.15Z" fill="#4F5E40"/>
<path d="M1185.59 1175.35L1338.92 1148.15L1374.25 1347.33L1220.93 1374.53L1185.59 1175.35Z" fill="#B3B3B3" stroke="#D6D1BE" stroke-width="0.1"/>
<path d="M1181.12 1170.67L1334.44 1143.47L1369.78 1342.65L1216.45 1369.85L1181.12 1170.67Z" fill="#CCCCCC" stroke="#D6D1BE" stroke-width="0.1"/>
<path d="M1176.65 1166.03L1329.97 1138.82L1365.31 1338L1211.98 1365.2L1176.65 1166.03Z" fill="#E6E6E6" stroke="#D6D1BE" stroke-width="0.1"/>
<path d="M1170.41 1161.67L1323.74 1134.46L1359.07 1333.64L1205.75 1360.84L1170.41 1161.67Z" fill="#F3EFEA" stroke="#D6D1BE" stroke-width="0.1"/>
<path d="M1248.38 1160.51L1183.13 1172.09L1183.76 1175.61L1249.01 1164.04L1248.38 1160.51Z" fill="#CCCCCC"/>
<path d="M1289.07 1164.2L1185.02 1182.66L1185.65 1186.19L1289.69 1167.73L1289.07 1164.2Z" fill="#CCCCCC"/>
<path d="M1290.94 1174.8L1186.89 1193.26L1187.52 1196.78L1291.57 1178.33L1290.94 1174.8Z" fill="#CCCCCC"/>
<path d="M1332.25 1212.93L1228.2 1231.39L1228.83 1234.92L1332.88 1216.46L1332.25 1212.93Z" fill="#CCCCCC"/>
<path d="M1333.52 1219.99L1229.47 1238.44L1230.1 1241.97L1334.14 1223.51L1333.52 1219.99Z" fill="#CCCCCC"/>
<path d="M1241.67 1194.45L1188.77 1203.84L1189.39 1207.37L1242.3 1197.98L1241.67 1194.45Z" fill="#CCCCCC"/>
<path d="M1191.62 1407.87C1183.97 1408.51 1176.17 1407.39 1170.77 1400.76C1167.87 1397.18 1166.64 1392.61 1165.6 1388.15C1159.87 1363.72 1157.56 1338.68 1154.6 1313.8C1152.01 1291.92 1147.08 1270.82 1143.32 1249.22C1140.69 1234.08 1142.44 1219.31 1159.92 1214.17C1178.44 1208.72 1197.59 1205.29 1216.84 1203.92C1221.17 1203.62 1225.94 1203.55 1229.29 1206.14C1232.4 1208.56 1233.43 1212.65 1235.22 1216.09C1238.82 1222.96 1246 1227.67 1253.74 1229.79C1261.47 1231.88 1269.75 1231.63 1277.75 1230.48C1289.4 1228.82 1300.7 1225.36 1312.03 1222.25C1336.45 1215.55 1361.31 1210.44 1386.38 1206.99C1388.96 1206.63 1391.68 1206.31 1394.06 1207.26C1398.59 1209.06 1399.94 1214.47 1400.73 1219.13C1407.1 1257.21 1413.46 1295.28 1419.84 1333.36C1420.93 1339.85 1422 1346.4 1421.5 1352.97C1421.22 1356.61 1420.34 1360.44 1417.69 1363.11C1414.89 1365.92 1410.68 1366.89 1406.73 1367.71C1393.45 1370.47 1380.15 1373.14 1366.84 1375.79C1365.75 1375.99 1364.67 1376.22 1363.6 1376.44C1340.89 1380.97 1318.16 1385.5 1295.38 1389.58C1272.83 1393.63 1250.82 1399.43 1228.03 1402.69C1216.97 1404.29 1205.9 1405.86 1194.85 1407.46C1193.77 1407.62 1192.7 1407.74 1191.62 1407.83V1407.87Z" fill="#3C4A30"/>
<path d="M1193.02 1411.15C1185.19 1411.76 1177.56 1410.75 1172.21 1404.25C1169.31 1400.74 1168.11 1396.25 1167.07 1391.88C1161.43 1367.88 1159.19 1343.28 1156.3 1318.85C1153.78 1297.36 1148.91 1276.64 1145.23 1255.43C1142.66 1240.57 1144.46 1226.04 1161.93 1220.96C1180.46 1215.55 1199.59 1212.11 1218.85 1210.71C1223.18 1210.41 1227.94 1210.32 1231.28 1212.86C1234.39 1215.24 1235.38 1219.24 1237.19 1222.62C1240.77 1229.37 1247.93 1233.98 1255.65 1236.02C1263.37 1238.06 1271.65 1237.77 1279.65 1236.63C1291.29 1234.96 1302.6 1231.52 1313.93 1228.43C1338.34 1221.76 1363.2 1216.68 1388.28 1213.2C1390.86 1212.84 1393.58 1212.52 1395.96 1213.45C1400.48 1215.23 1401.82 1220.53 1402.59 1225.09C1408.84 1262.49 1415.07 1299.89 1421.32 1337.28C1422.38 1343.66 1423.45 1350.09 1422.93 1356.56C1422.65 1360.14 1421.75 1363.9 1419.1 1366.51C1416.29 1369.29 1412.08 1370.26 1408.14 1371.08C1394.85 1373.84 1381.56 1376.49 1368.25 1379.14C1367.16 1379.34 1366.09 1379.57 1365.01 1379.79C1342.3 1384.32 1319.57 1388.83 1296.77 1392.91C1286.69 1394.72 1276.66 1396.89 1266.63 1399.02C1256.6 1401.15 1247.5 1403.05 1237.89 1404.68C1228.27 1406.31 1219.35 1407.51 1210 1408.67C1204.79 1409.32 1198.84 1410.68 1193.02 1411.13V1411.15Z" fill="#6E7F59"/>
<path d="M1283 1337.39L1182.2 1355.27C1178.38 1355.95 1175.83 1359.59 1176.51 1363.41L1180.94 1388.38C1181.62 1392.2 1185.26 1394.75 1189.08 1394.07L1289.88 1376.19C1293.7 1375.51 1296.24 1371.87 1295.57 1368.05L1291.14 1343.08C1290.46 1339.26 1286.82 1336.71 1283 1337.39Z" fill="#F3EFEA"/>
<path d="M1246.75 1349.28L1181.5 1360.85L1181.96 1363.44L1247.21 1351.87L1246.75 1349.28Z" fill="#CCCCCC"/>
<path d="M1287.01 1350.66L1182.97 1369.12L1183.43 1371.71L1287.47 1353.25L1287.01 1350.66Z" fill="#CCCCCC"/>
<path d="M1288.39 1358.45L1184.34 1376.91L1184.8 1379.5L1288.85 1361.04L1288.39 1358.45Z" fill="#CCCCCC"/>
<path d="M1238.64 1375.31L1185.73 1384.7L1186.19 1387.29L1239.1 1377.9L1238.64 1375.31Z" fill="#CCCCCC"/>
<path opacity="0.5" d="M350.61 1247.57L246.066 1277.53C222.636 1284.24 209.085 1308.68 215.799 1332.11L240.823 1419.44C247.537 1442.87 271.974 1456.42 295.404 1449.7L399.948 1419.75C423.378 1413.03 436.929 1388.6 430.215 1365.17L405.191 1277.84C398.477 1254.41 374.04 1240.86 350.61 1247.57Z" fill="#4F5E40"/>
<path d="M281.867 1389.94C280.936 1393.7 280.004 1397.5 279.682 1401.37C279.395 1404.61 279.879 1408.5 282.727 1410.09C283.855 1410.72 285.216 1410.88 286.506 1410.68C290.858 1410.02 293.742 1405.85 295.479 1401.82C297.234 1397.77 298.38 1393.49 299.545 1389.24C299.616 1388.96 299.688 1388.67 299.634 1388.38C299.545 1388.04 299.276 1387.77 298.971 1387.58C297.825 1386.81 296.392 1386.66 295.013 1386.59C293.061 1386.48 291.109 1386.48 289.157 1386.59C286.542 1386.72 283.586 1387.24 282.136 1389.4" fill="#BAB25E"/>
<path d="M325.586 1310.22C337.3 1320.13 349.031 1330.01 360.744 1339.92C361.156 1340.28 361.604 1340.63 362.141 1340.76C362.822 1340.92 363.538 1340.69 364.201 1340.44C369.001 1338.72 373.944 1337.41 378.959 1336.48C383.114 1335.73 388.111 1335.53 390.816 1338.77C393.663 1342.19 392.087 1347.74 388.684 1350.61C385.281 1353.48 380.678 1354.37 376.29 1355.18C379.407 1358.79 382.505 1362.43 385.622 1366.05C387.359 1368.07 389.132 1370.15 390.099 1372.64C391.066 1375.13 391.084 1378.16 389.472 1380.29C387.287 1383.17 382.828 1383.42 379.568 1381.85C376.308 1380.27 373.926 1377.37 371.58 1374.59C362.535 1363.86 352.434 1353.99 341.383 1345.33C337.425 1342.23 333.323 1339.25 329.885 1335.6C326.446 1331.95 323.652 1327.45 322.953 1322.47C322.38 1318.5 323.186 1314.43 324.655 1310.69" fill="#BAB25E"/>
<path d="M306.691 1357.99C311.455 1357.33 316.004 1355.57 320.607 1354.16C325.21 1352.74 330.064 1351.65 334.828 1352.35C339.592 1353.05 344.303 1355.86 346.094 1360.32C346.326 1360.89 346.505 1361.5 346.38 1362.09C346.076 1363.52 344.32 1363.99 342.87 1364.2C318.565 1367.93 295.73 1378.01 271.784 1383.64C268.166 1384.48 263.312 1384.68 261.807 1381.25C261.252 1379.98 261.378 1378.5 261.79 1377.17C263.706 1371.1 270.637 1368.41 276.727 1366.55C278.984 1365.87 281.222 1365.17 283.479 1364.49C284.518 1364.17 285.61 1363.83 286.434 1363.11C287.491 1362.18 287.974 1360.76 288.386 1359.4C293.151 1344.04 296.697 1328.31 298.989 1312.39C299.133 1311.33 299.276 1310.26 298.989 1309.24C298.739 1308.31 298.148 1307.52 297.539 1306.78C294.368 1302.9 290.195 1299.74 287.975 1295.27C285.754 1290.79 286.524 1284.14 291.18 1282.32C293.706 1281.33 296.643 1282.08 298.882 1283.59C301.121 1285.09 302.822 1287.28 304.47 1289.43C305.759 1285.2 307.371 1280.81 310.739 1277.95C314.106 1275.08 319.783 1274.45 322.721 1277.77C325.855 1281.3 324.368 1286.78 322.792 1291.24C315.395 1312.08 309.789 1333.59 306.118 1355.41" fill="#BAB25E"/>
<path d="M224.841 58.1051L112.029 158.723L206.125 264.223L318.937 163.605L224.841 58.1051Z" fill="#BAB25E"/>
<path d="M123.833 101.668L256.663 15.6046C260.465 13.1407 265.545 14.2261 268.009 18.0288L370.628 176.411C373.092 180.214 372.007 185.294 368.204 187.758L235.375 273.821C231.572 276.285 226.492 275.199 224.028 271.397L121.409 113.014C118.945 109.211 120.03 104.131 123.833 101.668Z" fill="#E6E6E6" stroke="#D6D1BE"/>
<path d="M261.956 28.2455L132.267 112.273L207.53 228.433L337.218 144.406L261.956 28.2455Z" fill="#7E2512"/>
<path d="M184.62 94.5589L332.312 37.6582C336.54 36.0293 341.289 38.1364 342.918 42.3646L410.764 218.468C412.393 222.696 410.286 227.445 406.058 229.074L258.366 285.974C254.138 287.603 249.39 285.496 247.761 281.268L179.914 105.164C178.285 100.936 180.392 96.1879 184.62 94.5589Z" fill="#F3EFEA" stroke="#D6D1BE"/>
<path d="M335.913 52.6569L191.714 108.212L241.474 237.369L385.673 181.814L335.913 52.6569Z" fill="#6E7F59"/>
<mask id="mask0_173_202" style="mask-type:luminance" maskUnits="userSpaceOnUse" x="219" y="124" width="170" height="116">
<path d="M221.545 181.512C228.745 166.7 236.733 152.301 245.473 138.348C249.306 132.241 254.106 125.65 261.216 124.504C265.318 123.841 269.491 125.148 273.288 126.886C279.449 129.716 285.019 133.656 290.536 137.578C298.81 143.453 307.067 149.327 315.342 155.202C316.577 156.08 317.939 156.993 319.461 156.921C320.482 156.868 321.413 156.348 322.273 155.793C329.938 150.76 333.556 141.286 340.703 135.554C342.153 134.39 343.801 133.387 345.628 133.172C347.276 132.975 348.941 133.459 350.517 133.978C363.61 138.384 375.18 147.178 382.935 158.623C385.622 162.599 387.896 167.005 388.272 171.787C388.774 178.181 385.765 184.414 381.717 189.393C376.093 196.306 368.482 201.339 360.547 205.405C325.712 223.279 284.589 223.906 247.927 237.643C245.778 238.449 243.521 239.309 241.246 239.005C239.384 238.754 237.718 237.751 236.249 236.587C229.085 230.909 225.897 221.631 223.999 212.694C221.867 202.682 220.9 192.473 219.951 182.282" fill="white"/>
</mask>
<g mask="url(#mask0_173_202)">
<path d="M335.489 51.8558L191.291 107.411L241.051 236.568L385.249 181.013L335.489 51.8558Z" fill="#3C4A30"/>
</g>
<path d="M319.873 104.229C327.292 104.229 333.306 98.2152 333.306 90.7965C333.306 83.3778 327.292 77.3637 319.873 77.3637C312.454 77.3637 306.44 83.3778 306.44 90.7965C306.44 98.2152 312.454 104.229 319.873 104.229Z" fill="#BAB25E"/>
<path d="M1445.73 625.4L1445.73 625.4L1352.61 602.493C1350.01 601.851 1348.57 599.492 1349.26 597.27L1349.26 597.268L1378.78 500.588L1378.78 500.587C1379.46 498.337 1382.09 496.951 1384.7 497.596L1384.7 497.596L1477.82 520.503C1480.42 521.145 1481.86 523.504 1481.17 525.726L1481.17 525.728L1451.65 622.408L1451.65 622.41C1450.97 624.659 1448.34 626.045 1445.73 625.4Z" fill="#E6E6E6" stroke="#D6D1BE"/>
<path d="M1451.14 599.808L1362.22 577.94L1385.02 503.254L1473.94 525.14L1451.14 599.808Z" fill="#BAB25E"/>
<path d="M1367.06 594.025L1455.18 629.451L1367.06 594.025ZM1367.06 594.025C1364.63 593.045 1363.6 590.532 1364.65 588.408C1364.65 588.407 1364.65 588.407 1364.65 588.407L1411.7 494.056C1412.77 491.916 1415.62 490.908 1418.09 491.897C1418.09 491.897 1418.09 491.897 1418.09 491.897L1506.21 527.323C1506.21 527.323 1506.21 527.323 1506.21 527.323C1508.64 528.303 1509.67 530.817 1508.62 532.942L1461.57 627.292C1461.57 627.292 1461.57 627.292 1461.57 627.292C1460.5 629.433 1457.65 630.441 1455.18 629.452L1367.06 594.025Z" fill="#E6E6E6" stroke="#D6D1BE"/>
<path d="M1467.05 602.495L1381.02 567.91L1415.52 498.722L1501.54 533.307L1467.05 602.495Z" fill="#7E2512"/>
<path d="M1368.49 608.219L1368.49 608.219L1446.61 659.155L1368.49 608.219ZM1368.49 608.219C1366.36 606.83 1365.9 604.176 1367.43 602.289L1435.07 518.649L1435.07 518.648M1368.49 608.219L1435.07 518.648M1435.07 518.648C1436.62 516.729 1439.65 516.287 1441.83 517.697C1441.83 517.697 1441.83 517.697 1441.83 517.697L1519.95 568.633L1519.95 568.633M1435.07 518.648L1519.95 568.633M1519.95 568.633C1522.08 570.022 1522.54 572.677 1521.02 574.563L1453.37 658.204L1453.37 658.204M1519.95 568.633L1453.37 658.204M1453.37 658.204C1451.82 660.124 1448.8 660.565 1446.62 659.156L1453.37 658.204Z" fill="#F3EFEA" stroke="#D6D1BE"/>
<path d="M1463.95 635.916L1387.69 586.179L1437.3 524.836L1513.56 574.573L1463.95 635.916Z" fill="#6E7F59"/>
<mask id="mask1_173_202" style="mask-type:luminance" maskUnits="userSpaceOnUse" x="1386" y="558" width="93" height="79">
<path d="M1409.68 560.388C1419.64 559.277 1429.67 558.668 1439.72 558.543C1444.12 558.489 1449.07 558.722 1452.04 561.659C1453.74 563.343 1454.46 565.653 1454.83 567.91C1455.42 571.582 1455.26 575.325 1455.08 579.032C1454.82 584.585 1454.55 590.137 1454.3 595.689C1454.26 596.513 1454.24 597.426 1454.78 598.089C1455.14 598.537 1455.71 598.823 1456.28 599.038C1461.41 601.062 1467.44 599.898 1472.76 601.492C1473.84 601.814 1474.89 602.262 1475.63 603.05C1476.27 603.749 1476.58 604.662 1476.83 605.54C1478.92 612.865 1478.24 620.817 1474.96 627.784C1473.82 630.202 1472.31 632.566 1470 634.16C1466.89 636.292 1462.71 636.775 1458.81 636.399C1453.4 635.88 1448.3 633.874 1443.59 631.438C1422.88 620.746 1408.91 602.029 1389.73 589.277C1388.6 588.525 1387.42 587.755 1386.81 586.608C1386.33 585.677 1386.29 584.62 1386.4 583.599C1386.93 578.62 1390.62 574.394 1394.56 570.847C1398.97 566.889 1403.9 563.397 1408.79 559.94" fill="white"/>
</mask>
<g mask="url(#mask1_173_202)">
<path d="M1464.24 635.486L1387.97 585.749L1437.59 524.406L1513.85 574.143L1464.24 635.486Z" fill="#3C4A30"/>
</g>
<path d="M1488.74 585.928C1493.26 585.928 1496.92 582.632 1496.92 578.567C1496.92 574.501 1493.26 571.205 1488.74 571.205C1484.22 571.205 1480.55 574.501 1480.55 578.567C1480.55 582.632 1484.22 585.928 1488.74 585.928Z" fill="#BAB25E"/>
<path d="M698.969 34.2181L641.632 20.8649C629.234 17.9773 616.842 25.6876 613.954 38.0863L600.601 95.4232C597.714 107.822 605.424 120.214 617.822 123.101L675.159 136.455C687.558 139.342 699.95 131.632 702.838 119.233L716.191 61.8963C719.078 49.4976 711.368 37.1057 698.969 34.2181Z" fill="#3C4A30"/>
<path opacity="0.5" d="M696.318 43.3941L639.958 30.2684C627.29 27.318 614.628 35.1961 611.678 47.8645L600.718 94.9272C597.767 107.596 605.645 120.257 618.314 123.208L674.674 136.333C687.342 139.284 700.004 131.406 702.954 118.737L713.915 71.6745C716.865 59.0061 708.987 46.3445 696.318 43.3941Z" fill="#4F5E40"/>
<path d="M627.411 91.8353C625.996 93.3577 624.599 94.8621 623.435 96.5815C622.468 98.0144 621.68 99.9487 622.593 101.435C622.952 102.026 623.561 102.438 624.205 102.689C626.408 103.513 628.826 102.313 630.689 100.88C632.552 99.4472 634.199 97.7636 635.829 96.08C635.937 95.9726 636.044 95.8472 636.098 95.7039C636.151 95.5248 636.098 95.3278 636.008 95.1487C635.668 94.486 635.041 94.0562 634.414 93.6621C633.537 93.1069 632.623 92.6054 631.692 92.1398C630.438 91.5308 628.934 90.9935 627.698 91.6383" fill="#BAB25E"/>
<path d="M668.426 66.0623L677.095 88.9875C677.202 89.2562 677.309 89.5428 677.524 89.7398C677.793 89.9905 678.187 90.0622 678.563 90.1159C681.25 90.5636 683.883 91.2263 686.462 92.1039C688.593 92.8204 690.975 94.0383 691.387 96.2412C691.817 98.5696 689.65 100.737 687.321 101.202C684.993 101.668 682.611 100.88 680.372 100.11C680.874 102.599 681.393 105.089 681.894 107.578C682.181 108.975 682.468 110.39 682.271 111.805C682.074 113.22 681.303 114.635 679.996 115.208C678.223 115.978 676.092 114.94 674.981 113.364C673.871 111.787 673.512 109.817 673.136 107.919C671.703 100.576 669.554 93.3577 666.653 86.4622C665.614 83.9906 664.468 81.5547 663.823 78.9577C663.178 76.3607 663.035 73.5488 663.984 71.0593C664.754 69.0712 666.169 67.3698 667.817 66.0086" fill="#BAB25E"/>
<path d="M647.238 83.3995C649.638 84.3308 652.199 84.689 654.707 85.2264C657.214 85.7637 659.757 86.5159 661.799 88.0741C663.841 89.6323 665.309 92.1577 664.969 94.7009C664.933 95.0233 664.844 95.3636 664.647 95.5964C664.127 96.1875 663.196 95.9367 662.462 95.6681C650.193 91.101 636.939 89.883 624.331 86.2831C622.414 85.7458 620.122 84.5637 620.301 82.5935C620.372 81.8592 620.802 81.1965 621.34 80.695C623.811 78.3667 627.734 78.9219 631.047 79.6204C632.265 79.8891 633.501 80.1398 634.719 80.4085C635.292 80.5339 635.883 80.6592 636.456 80.5339C637.19 80.3727 637.781 79.8353 638.319 79.3159C644.516 73.4055 650.247 66.9936 655.441 60.1877C655.781 59.7399 656.139 59.2743 656.265 58.7191C656.39 58.2176 656.318 57.6982 656.229 57.1967C655.763 54.5639 654.635 52.0206 654.76 49.3519C654.886 46.6833 656.963 43.7997 659.614 44.158C661.047 44.355 662.211 45.4654 662.874 46.755C663.536 48.0445 663.751 49.4952 663.966 50.9281C665.668 49.2982 667.548 47.6684 669.859 47.2027C672.169 46.737 674.963 47.9191 675.483 50.2296C676.038 52.6833 673.906 54.8504 672.026 56.5161C663.178 64.3071 654.993 72.8682 647.632 82.0741" fill="#BAB25E"/>
<path d="M31.9283 546.328C31.4805 546.113 31.0507 545.898 30.6208 545.63C28.597 544.412 26.8597 542.495 26.4119 540.203C26.0895 538.501 26.4657 536.764 26.8955 535.098C29.2418 525.946 32.8238 517.17 36.1551 508.34C39.0924 500.567 41.1342 492.669 43.6417 484.788C45.3969 479.272 48.5312 474.633 55.1222 475.922C62.1072 477.284 68.9669 479.415 75.4862 482.281C76.9549 482.925 78.531 483.713 79.1579 485.164C79.7668 486.507 79.3907 488.048 79.3728 489.516C79.3728 492.436 80.8952 495.248 83.0623 497.29C85.2295 499.331 87.9697 500.657 90.7817 501.66C94.8652 503.11 99.1637 503.881 103.408 504.794C112.543 506.746 121.534 509.307 130.328 512.46C131.223 512.782 132.172 513.14 132.799 513.874C133.964 515.254 133.48 517.295 132.925 518.997C128.411 532.824 123.916 546.668 119.402 560.495C118.632 562.859 117.862 565.223 116.555 567.337C115.838 568.501 114.889 569.629 113.564 570.077C112.167 570.543 110.626 570.131 109.194 569.737C104.376 568.376 99.5756 566.979 94.7757 565.582C94.3816 565.456 93.9876 565.349 93.6115 565.241C83.8504 562.412 74.0892 559.546 64.4177 556.447C60.155 555.086 56.2147 553.313 51.9162 552.149C47.0446 550.806 42.1551 549.48 37.2835 548.137C35.4746 547.635 33.6477 547.134 31.9462 546.346L31.9283 546.328Z" fill="#4F5E40"/>
<path d="M70.1055 470.893L123.72 487.777L102.15 556.271L48.5358 539.387L70.1055 470.893Z" fill="#B3B3B3" stroke="#D6D1BE" stroke-width="0.1"/>
<path d="M69.442 468.665L123.056 485.549L101.487 554.043L47.8723 537.159L69.442 468.665Z" fill="#CCCCCC" stroke="#D6D1BE" stroke-width="0.1"/>
<path d="M68.7732 466.473L122.388 483.357L100.818 551.85L47.2034 534.966L68.7732 466.473Z" fill="#E6E6E6" stroke="#D6D1BE" stroke-width="0.1"/>
<path d="M67.4931 464.07L121.108 480.954L99.5378 549.448L45.9233 532.564L67.4931 464.07Z" fill="#F3EFEA" stroke="#D6D1BE" stroke-width="0.1"/>
<path d="M92.6646 476.617L69.8243 469.424L69.4423 470.637L92.2827 477.83L92.6646 476.617Z" fill="#CCCCCC"/>
<path d="M105.102 484.516L68.6801 473.046L68.2981 474.259L104.72 485.728L105.102 484.516Z" fill="#CCCCCC"/>
<path d="M103.95 488.176L67.528 476.706L67.1461 477.919L103.568 489.389L103.95 488.176Z" fill="#CCCCCC"/>
<path d="M110.895 507.034L74.4735 495.564L74.0916 496.777L110.513 508.247L110.895 507.034Z" fill="#CCCCCC"/>
<path d="M110.144 509.471L73.7228 498.002L73.3409 499.215L109.762 510.684L110.144 509.471Z" fill="#CCCCCC"/>
<path d="M84.9006 486.171L66.3823 480.339L66.0004 481.552L84.5186 487.384L84.9006 486.171Z" fill="#CCCCCC"/>
<path d="M33.5581 545.039C30.9969 543.982 28.6865 542.316 28.0417 539.343C27.7014 537.731 28.0596 536.083 28.4716 534.507C30.6745 525.874 34.0775 517.6 37.2297 509.272C40.0058 501.946 41.9222 494.496 44.2864 487.081C45.9521 481.887 48.9431 477.517 55.4087 478.806C62.2505 480.167 68.9489 482.263 75.3608 485.039C76.7937 485.666 78.334 486.436 78.9787 487.797C79.5877 489.087 79.2295 490.537 79.2295 491.916C79.2295 494.675 80.7698 497.361 82.9011 499.295C85.0324 501.23 87.7369 502.537 90.4951 503.504C94.507 504.919 98.698 505.707 102.853 506.603C111.79 508.555 120.602 511.063 129.217 514.143C130.095 514.466 131.026 514.806 131.635 515.504C132.781 516.83 132.334 518.746 131.814 520.34C127.569 533.379 123.307 546.418 119.062 559.474C118.346 561.695 117.611 563.934 116.358 565.922C115.659 567.014 114.746 568.071 113.456 568.483C112.095 568.913 110.59 568.519 109.176 568.107C104.465 566.764 99.7547 565.403 95.0443 564.023C94.6682 563.898 94.2742 563.809 93.898 563.683C85.8563 561.337 77.8325 558.991 69.8445 556.483C61.8564 553.976 53.9222 552.185 46.0774 549.427C42.2625 548.083 38.4476 546.758 34.6506 545.415C34.2924 545.289 33.9163 545.146 33.5581 545.003V545.039Z" fill="#3C4A30"/>
<path d="M33.4507 546.31C30.8358 545.2 28.5611 543.624 27.9164 540.686C27.5761 539.092 27.9164 537.48 28.3104 535.94C30.4596 527.451 33.8089 519.337 36.9253 511.17C39.6656 503.988 41.5282 496.663 43.8566 489.373C45.4864 484.269 48.4595 479.988 54.9073 481.296C61.749 482.675 68.4475 484.77 74.8594 487.528C76.2922 488.155 77.8504 488.907 78.4952 490.269C79.1041 491.54 78.7638 492.955 78.7817 494.316C78.8175 497.039 80.3399 499.672 82.4892 501.606C84.6384 503.54 87.325 504.812 90.0832 505.779C94.0951 507.194 98.2861 507.982 102.441 508.895C111.379 510.848 120.19 513.391 128.805 516.454C129.683 516.776 130.614 517.116 131.223 517.815C132.387 519.122 131.94 521.021 131.42 522.579C127.247 535.385 123.056 548.191 118.883 560.997C118.167 563.182 117.45 565.385 116.214 567.319C115.534 568.394 114.62 569.432 113.331 569.826C111.97 570.238 110.465 569.826 109.068 569.432C104.358 568.089 99.6473 566.728 94.9369 565.349C94.5607 565.223 94.1667 565.134 93.7906 565.009C85.7489 562.662 77.725 560.316 69.737 557.809C66.2087 556.698 62.6266 555.713 59.0624 554.728C55.4983 553.743 52.2565 552.812 48.9073 551.737C45.5581 550.662 42.4954 549.552 39.3073 548.37C37.5342 547.707 35.4029 547.152 33.4507 546.328V546.31Z" fill="#6E7F59"/>
<path d="M70.2821 536.677L43.5126 528.247C39.8235 527.085 35.8912 529.134 34.7295 532.823C33.5678 536.512 35.6166 540.444 39.3056 541.606L66.0751 550.036C69.7641 551.198 73.6964 549.149 74.8581 545.46C76.0198 541.771 73.9711 537.839 70.2821 536.677Z" fill="#F3EFEA"/>
<path d="M60.9429 535.742L38.1025 528.549L37.8228 529.438L60.6631 536.63L60.9429 535.742Z" fill="#CCCCCC"/>
<path d="M73.6399 542.862L37.2184 531.392L36.9386 532.281L73.3602 543.75L73.6399 542.862Z" fill="#CCCCCC"/>
<path d="M72.7823 545.548L36.3607 534.078L36.081 534.966L72.5025 546.436L72.7823 545.548Z" fill="#CCCCCC"/>
<path d="M54.0402 542.604L35.522 536.772L35.2422 537.66L53.7605 543.492L54.0402 542.604Z" fill="#CCCCCC"/>
<path d="M1496.08 855.571L1438.74 842.218C1426.34 839.33 1413.95 847.04 1411.06 859.439L1397.71 916.776C1394.82 929.175 1402.53 941.566 1414.93 944.454L1472.27 957.807C1484.66 960.695 1497.06 952.985 1499.94 940.586L1513.3 883.249C1516.18 870.85 1508.47 858.458 1496.08 855.571Z" fill="#3C4A30"/>
<path opacity="0.5" d="M1493.42 864.765L1437.06 851.639C1424.4 848.689 1411.73 856.567 1408.78 869.235L1397.82 916.298C1394.87 928.966 1402.75 941.628 1415.42 944.578L1471.78 957.704C1484.45 960.654 1497.11 952.776 1500.06 940.108L1511.02 893.045C1513.97 880.377 1506.09 867.715 1493.42 864.765Z" fill="#4F5E40"/>
<path d="M1424.56 913.168C1423.15 914.69 1421.75 916.194 1420.59 917.914C1419.62 919.347 1418.83 921.281 1419.75 922.767C1420.1 923.358 1420.71 923.77 1421.36 924.021C1423.56 924.845 1425.98 923.645 1427.84 922.212C1429.7 920.779 1431.35 919.096 1432.98 917.412C1433.09 917.305 1433.2 917.179 1433.25 917.036C1433.3 916.857 1433.25 916.66 1433.16 916.481C1432.82 915.818 1432.19 915.388 1431.57 914.994C1430.69 914.439 1429.78 913.938 1428.85 913.472C1427.59 912.863 1426.09 912.326 1424.85 912.971" fill="#BAB25E"/>
<path d="M1465.58 887.395C1468.46 895.042 1471.36 902.69 1474.25 910.32C1474.36 910.589 1474.46 910.875 1474.68 911.072C1474.95 911.323 1475.34 911.394 1475.72 911.448C1478.4 911.896 1481.04 912.559 1483.61 913.436C1485.75 914.153 1488.13 915.371 1488.54 917.574C1488.97 919.902 1486.8 922.069 1484.47 922.535C1482.15 923 1479.76 922.212 1477.53 921.442C1478.03 923.932 1478.55 926.421 1479.05 928.911C1479.33 930.308 1479.62 931.723 1479.42 933.138C1479.23 934.553 1478.46 935.967 1477.15 936.541C1475.38 937.311 1473.24 936.272 1472.13 934.696C1471.02 933.12 1470.67 931.15 1470.29 929.251C1468.86 921.908 1466.71 914.69 1463.81 907.794C1462.77 905.323 1461.62 902.887 1460.98 900.29C1460.33 897.693 1460.19 894.881 1461.14 892.392C1461.91 890.404 1463.32 888.702 1464.97 887.341" fill="#BAB25E"/>
<path d="M1444.41 904.732C1446.81 905.663 1449.37 906.021 1451.88 906.559C1454.39 907.096 1456.93 907.848 1458.97 909.406C1461.01 910.965 1462.48 913.49 1462.14 916.033C1462.1 916.356 1462.02 916.696 1461.82 916.929C1461.3 917.52 1460.37 917.269 1459.63 917C1447.36 912.433 1434.11 911.215 1421.5 907.615C1419.59 907.078 1417.29 905.896 1417.47 903.926C1417.54 903.192 1417.97 902.529 1418.51 902.027C1420.98 899.699 1424.9 900.254 1428.22 900.953C1429.44 901.221 1430.67 901.472 1431.89 901.741C1432.46 901.866 1433.05 901.992 1433.63 901.866C1434.36 901.705 1434.95 901.168 1435.49 900.648C1441.69 894.738 1447.42 888.326 1452.61 881.52C1452.95 881.072 1453.31 880.607 1453.44 880.051C1453.56 879.55 1453.49 879.031 1453.4 878.529C1452.93 875.896 1451.81 873.353 1451.93 870.684C1452.06 868.016 1454.13 865.132 1456.79 865.49C1458.22 865.687 1459.38 866.798 1460.04 868.087C1460.71 869.377 1460.92 870.828 1461.14 872.26C1462.84 870.631 1464.72 869.001 1467.03 868.535C1469.34 868.069 1472.13 869.251 1472.65 871.562C1473.21 874.016 1471.08 876.183 1469.2 877.848C1460.35 885.639 1452.16 894.201 1444.8 903.406" fill="#BAB25E"/>
<path d="M865.306 1424.2L818.869 1468.71C818.869 1468.71 818.868 1468.71 818.868 1468.71C817.665 1469.85 815.85 1469.75 814.761 1468.44C814.761 1468.44 814.761 1468.44 814.761 1468.44L766.853 1410.76C766.853 1410.76 766.853 1410.76 766.852 1410.76C765.764 1409.43 765.876 1407.42 767.083 1406.24C767.084 1406.24 767.084 1406.24 767.085 1406.24L813.522 1361.74C813.522 1361.74 813.522 1361.74 813.522 1361.74C814.725 1360.59 816.54 1360.7 817.629 1362C817.629 1362 817.629 1362 817.629 1362L865.537 1419.69C865.538 1419.69 865.538 1419.69 865.538 1419.69C866.626 1421.01 866.515 1423.02 865.307 1424.2C865.307 1424.2 865.306 1424.2 865.306 1424.2Z" fill="#E6E6E6" stroke="#D6D1BE"/>
<path d="M851.881 1410.41L807.535 1452.91L770.533 1408.35L814.879 1365.85L851.881 1410.41Z" fill="#BAB25E"/>
<path d="M818.838 1456.75L818.838 1456.75C817.495 1457.68 815.705 1457.28 814.824 1455.81L814.823 1455.81L774.472 1388.91C774.472 1388.91 774.472 1388.91 774.472 1388.91C773.58 1387.43 773.982 1385.45 775.333 1384.49C775.333 1384.49 775.334 1384.49 775.334 1384.49L827.558 1348.14L827.558 1348.14C828.901 1347.2 830.691 1347.61 831.572 1349.08L831.573 1349.08L871.924 1415.97C871.924 1415.97 871.924 1415.97 871.925 1415.97C872.817 1417.46 872.414 1419.44 871.063 1420.39C871.062 1420.39 871.062 1420.39 871.062 1420.39L818.838 1456.75Z" fill="#E6E6E6" stroke="#D6D1BE"/>
<path d="M859.064 1402.3L808.073 1437.8L778.485 1388.72L829.476 1353.24L859.064 1402.3Z" fill="#7E2512"/>
<path d="M827.941 1461.84L827.939 1461.84C826.475 1462.45 824.773 1461.67 824.179 1460.02L823.715 1460.18L824.179 1460.02L797.511 1385.63C797.511 1385.63 797.511 1385.63 797.511 1385.63C796.913 1383.97 797.695 1382.14 799.201 1381.52L857.267 1357.48L857.268 1357.48C858.733 1356.87 860.435 1357.65 861.029 1359.3L861.497 1359.14L861.029 1359.3L887.697 1433.69C888.295 1435.35 887.513 1437.18 886.006 1437.8L827.941 1461.84Z" fill="#F3EFEA" stroke="#D6D1BE"/>
<path d="M878.12 1418.1L821.416 1441.56L801.858 1387.02L858.544 1363.56L878.12 1418.1Z" fill="#6E7F59"/>
<mask id="mask2_173_202" style="mask-type:luminance" maskUnits="userSpaceOnUse" x="812" y="1393" width="68" height="50">
<path d="M813.589 1417.97C816.419 1411.72 819.553 1405.63 822.992 1399.74C824.497 1397.16 826.377 1394.38 829.189 1393.88C830.801 1393.59 832.449 1394.15 833.935 1394.88C836.353 1396.08 838.538 1397.75 840.723 1399.4C843.983 1401.89 847.225 1404.36 850.485 1406.85C850.968 1407.22 851.505 1407.6 852.096 1407.56C852.49 1407.55 852.867 1407.33 853.207 1407.08C856.216 1404.95 857.649 1400.96 860.461 1398.54C861.034 1398.05 861.678 1397.62 862.395 1397.53C863.04 1397.45 863.702 1397.66 864.311 1397.87C869.452 1399.74 874.019 1403.45 877.046 1408.28C878.102 1409.96 878.998 1411.83 879.141 1413.83C879.338 1416.54 878.156 1419.17 876.562 1421.27C874.341 1424.19 871.35 1426.32 868.234 1428.04C854.532 1435.58 838.359 1435.84 823.959 1441.65C823.118 1441.99 822.222 1442.35 821.326 1442.22C820.592 1442.11 819.947 1441.68 819.356 1441.2C816.544 1438.8 815.291 1434.88 814.538 1431.12C813.697 1426.89 813.321 1422.57 812.944 1418.27" fill="white"/>
</mask>
<g mask="url(#mask2_173_202)">
<path d="M877.959 1417.76L821.255 1441.22L801.697 1386.68L858.383 1363.22L877.959 1417.76Z" fill="#3C4A30"/>
</g>
<path d="M852.24 1385.34C855.158 1385.34 857.523 1382.8 857.523 1379.66C857.523 1376.52 855.158 1373.98 852.24 1373.98C849.322 1373.98 846.956 1376.52 846.956 1379.66C846.956 1382.8 849.322 1385.34 852.24 1385.34Z" fill="#BAB25E"/>
</svg>
